<svg width="122" height="148" viewBox="0 0 122 148" fill="none" xmlns="http://www.w3.org/2000/svg">
<path d="M7.33426 12.3652H8.81766V13.3975H7.33426V15.6943H6.24734V13.3975H1.38699V12.4062L6.13113 5.64551H7.33426V12.3652ZM6.24734 12.3652V9.0498C6.24734 8.35254 6.27013 7.61426 6.3157 6.83496H6.26101C6.04226 7.27246 5.83719 7.63477 5.64578 7.92188L2.52176 12.3652H6.24734ZM9.88051 6.74609V5.7002H16.5387V6.60938L12.4508 15.6943H11.193L15.3356 6.74609H9.88051ZM20.124 5.55664C20.7848 5.55664 21.293 5.8278 21.6484 6.37012C22.0039 6.91243 22.1816 7.69401 22.1816 8.71484C22.1816 9.73112 22.0062 10.5059 21.6553 11.0391C21.3089 11.5677 20.8053 11.832 20.1445 11.832C19.4883 11.832 18.9847 11.5609 18.6338 11.0186C18.2829 10.4717 18.1074 9.69238 18.1074 8.68066C18.1074 6.59798 18.7796 5.55664 20.124 5.55664ZM20.8965 15.6943H19.8916L25.4355 5.7002H26.4404L20.8965 15.6943ZM20.124 6.37012C19.7503 6.37012 19.4769 6.55924 19.3037 6.9375C19.1351 7.3112 19.0508 7.89225 19.0508 8.68066C19.0508 9.46908 19.1351 10.0547 19.3037 10.4375C19.4769 10.8158 19.7503 11.0049 20.124 11.0049C20.8714 11.0049 21.2451 10.2324 21.2451 8.6875C21.2451 7.14258 20.8714 6.37012 20.124 6.37012ZM24.123 12.6729C24.123 11.6475 24.2939 10.8727 24.6357 10.3486C24.9775 9.82454 25.4766 9.5625 26.1328 9.5625C26.7936 9.5625 27.304 9.83366 27.6641 10.376C28.0241 10.9137 28.2041 11.693 28.2041 12.7139C28.2041 13.7301 28.0286 14.5049 27.6777 15.0381C27.3314 15.5667 26.8278 15.8311 26.167 15.8311C25.5062 15.8311 25.0003 15.5599 24.6494 15.0176C24.2985 14.4753 24.123 13.6937 24.123 12.6729ZM27.2676 12.7002C27.2676 11.9118 27.1764 11.3307 26.9941 10.957C26.8118 10.5788 26.5293 10.3896 26.1465 10.3896C25.7682 10.3896 25.4925 10.5765 25.3193 10.9502C25.1507 11.3193 25.0664 11.9004 25.0664 12.6934C25.0664 13.4818 25.1507 14.0674 25.3193 14.4502C25.4925 14.8285 25.7682 15.0176 26.1465 15.0176C26.5293 15.0176 26.8118 14.8285 26.9941 14.4502C27.1764 14.0674 27.2676 13.484 27.2676 12.7002Z" fill="#4F4F4F"/>
<path d="M99.8128 29.4062H101.296V30.4385H99.8128V32.7354H98.7259V30.4385H93.8655V29.4473L98.6096 22.6865H99.8128V29.4062ZM98.7259 29.4062V26.0908C98.7259 25.3936 98.7486 24.6553 98.7942 23.876H98.7395C98.5208 24.3135 98.3157 24.6758 98.1243 24.9629L95.0003 29.4062H98.7259ZM105.531 22.5977C106.497 22.5977 107.249 22.821 107.787 23.2676C108.329 23.7096 108.6 24.318 108.6 25.0928C108.6 25.7262 108.422 26.248 108.067 26.6582C107.712 27.0638 107.203 27.335 106.543 27.4717V27.5264C107.336 27.6221 107.928 27.8727 108.32 28.2783C108.712 28.6839 108.908 29.2262 108.908 29.9053C108.908 30.8623 108.577 31.596 107.917 32.1064C107.256 32.6169 106.317 32.8721 105.1 32.8721C104.016 32.8721 103.102 32.6921 102.359 32.332V31.252C103.248 31.6895 104.175 31.9082 105.141 31.9082C106.868 31.9082 107.732 31.2314 107.732 29.8779C107.732 28.6657 106.78 28.0596 104.875 28.0596H103.89V27.082H104.888C105.668 27.082 106.285 26.9111 106.741 26.5693C107.197 26.223 107.424 25.7445 107.424 25.1338C107.424 24.6462 107.256 24.2633 106.919 23.9854C106.586 23.7074 106.132 23.5684 105.558 23.5684C105.13 23.5684 104.72 23.6276 104.328 23.7461C103.94 23.86 103.496 24.0788 102.995 24.4023L102.421 23.6367C102.835 23.3086 103.311 23.0534 103.849 22.8711C104.387 22.6888 104.948 22.5977 105.531 22.5977ZM112.603 22.5977C113.263 22.5977 113.771 22.8688 114.127 23.4111C114.482 23.9535 114.66 24.735 114.66 25.7559C114.66 26.7721 114.485 27.5469 114.134 28.0801C113.787 28.6087 113.284 28.873 112.623 28.873C111.967 28.873 111.463 28.6019 111.112 28.0596C110.761 27.5127 110.586 26.7334 110.586 25.7217C110.586 23.639 111.258 22.5977 112.603 22.5977ZM113.375 32.7354H112.37L117.914 22.7412H118.919L113.375 32.7354ZM112.603 23.4111C112.229 23.4111 111.955 23.6003 111.782 23.9785C111.614 24.3522 111.529 24.9333 111.529 25.7217C111.529 26.5101 111.614 27.0957 111.782 27.4785C111.955 27.8568 112.229 28.0459 112.603 28.0459C113.35 28.0459 113.724 27.2734 113.724 25.7285C113.724 24.1836 113.35 23.4111 112.603 23.4111ZM116.602 29.7139C116.602 28.6885 116.772 27.9137 117.114 27.3896C117.456 26.8656 117.955 26.6035 118.611 26.6035C119.272 26.6035 119.783 26.8747 120.143 27.417C120.503 27.9548 120.683 28.734 120.683 29.7549C120.683 30.7712 120.507 31.5459 120.156 32.0791C119.81 32.6077 119.306 32.8721 118.646 32.8721C117.985 32.8721 117.479 32.6009 117.128 32.0586C116.777 31.5163 116.602 30.7347 116.602 29.7139ZM119.746 29.7412C119.746 28.9528 119.655 28.3717 119.473 27.998C119.29 27.6198 119.008 27.4307 118.625 27.4307C118.247 27.4307 117.971 27.6175 117.798 27.9912C117.629 28.3604 117.545 28.9414 117.545 29.7344C117.545 30.5228 117.629 31.1084 117.798 31.4912C117.971 31.8695 118.247 32.0586 118.625 32.0586C119.008 32.0586 119.29 31.8695 119.473 31.4912C119.655 31.1084 119.746 30.5251 119.746 29.7412Z" fill="#4F4F4F"/>
<path d="M51.1399 50.9033C52.1061 50.9033 52.858 51.1266 53.3958 51.5732C53.9381 52.0153 54.2093 52.6237 54.2093 53.3984C54.2093 54.0319 54.0315 54.5537 53.6761 54.9639C53.3206 55.3695 52.8124 55.6406 52.1516 55.7773V55.832C52.9446 55.9277 53.5371 56.1784 53.929 56.584C54.3209 56.9896 54.5169 57.5319 54.5169 58.2109C54.5169 59.168 54.1865 59.9017 53.5257 60.4121C52.8649 60.9225 51.9261 61.1777 50.7093 61.1777C49.6246 61.1777 48.7109 60.9977 47.968 60.6377V59.5576C48.8567 59.9951 49.7841 60.2139 50.7503 60.2139C52.4775 60.2139 53.3411 59.5371 53.3411 58.1836C53.3411 56.9714 52.3886 56.3652 50.4837 56.3652H49.4993V55.3877H50.4973C51.2766 55.3877 51.8942 55.2168 52.3499 54.875C52.8056 54.5286 53.0335 54.0501 53.0335 53.4395C53.0335 52.9518 52.8649 52.569 52.5276 52.291C52.1949 52.013 51.7415 51.874 51.1673 51.874C50.7389 51.874 50.3287 51.9333 49.9368 52.0518C49.5494 52.1657 49.1051 52.3844 48.6038 52.708L48.0296 51.9424C48.4443 51.6143 48.9205 51.359 49.4583 51.1768C49.996 50.9945 50.5566 50.9033 51.1399 50.9033ZM59.9069 54.8135C60.8047 54.8135 61.511 55.0846 62.026 55.627C62.5455 56.1647 62.8053 56.9007 62.8053 57.835C62.8053 58.874 62.5205 59.6921 61.9508 60.2891C61.3857 60.8815 60.6041 61.1777 59.6061 61.1777C58.608 61.1777 57.8037 60.7904 57.193 60.0156C56.5869 59.2409 56.2838 58.1585 56.2838 56.7686C56.2838 52.8584 57.7946 50.9033 60.8161 50.9033C61.3401 50.9033 61.7457 50.9466 62.0329 51.0332V52.0107C61.6911 51.8968 61.29 51.8398 60.8297 51.8398C59.7496 51.8398 58.9293 52.1771 58.3688 52.8516C57.8082 53.526 57.5006 54.5719 57.4459 55.9893H57.528C58.0247 55.2054 58.8177 54.8135 59.9069 54.8135ZM59.6129 55.709C59.0524 55.709 58.5488 55.8981 58.1022 56.2764C57.6556 56.6546 57.4368 57.0898 57.4459 57.582C57.4414 58.0469 57.5302 58.4821 57.7125 58.8877C57.8994 59.2933 58.1592 59.6169 58.4918 59.8584C58.8291 60.0954 59.1959 60.2139 59.5924 60.2139C59.6107 60.2139 59.6266 60.2139 59.6403 60.2139C60.292 60.2139 60.7955 60.0088 61.151 59.5986C61.5065 59.1885 61.6842 58.6257 61.6842 57.9102C61.6842 57.1901 61.5156 56.6432 61.1784 56.2695C60.8411 55.8958 60.3467 55.709 59.695 55.709C59.6676 55.709 59.6403 55.709 59.6129 55.709ZM66.3633 50.9033C67.0241 50.9033 67.5322 51.1745 67.8877 51.7168C68.2432 52.2591 68.4209 53.0407 68.4209 54.0615C68.4209 55.0778 68.2454 55.8525 67.8945 56.3857C67.5482 56.9144 67.0446 57.1787 66.3838 57.1787C65.7275 57.1787 65.224 56.9076 64.873 56.3652C64.5221 55.8184 64.3467 55.0391 64.3467 54.0273C64.3467 51.9447 65.0189 50.9033 66.3633 50.9033ZM67.1357 61.041H66.1309L71.6748 51.0469H72.6797L67.1357 61.041ZM66.3633 51.7168C65.9896 51.7168 65.7161 51.9059 65.543 52.2842C65.3743 52.6579 65.29 53.2389 65.29 54.0273C65.29 54.8158 65.3743 55.4014 65.543 55.7842C65.7161 56.1624 65.9896 56.3516 66.3633 56.3516C67.1107 56.3516 67.4844 55.5791 67.4844 54.0342C67.4844 52.4893 67.1107 51.7168 66.3633 51.7168ZM70.3623 58.0195C70.3623 56.9941 70.5332 56.2194 70.875 55.6953C71.2168 55.1712 71.7158 54.9092 72.3721 54.9092C73.0329 54.9092 73.5433 55.1803 73.9033 55.7227C74.2633 56.2604 74.4434 57.0397 74.4434 58.0605C74.4434 59.0768 74.2679 59.8516 73.917 60.3848C73.5706 60.9134 73.0671 61.1777 72.4062 61.1777C71.7454 61.1777 71.2396 60.9066 70.8887 60.3643C70.5378 59.8219 70.3623 59.0404 70.3623 58.0195ZM73.5068 58.0469C73.5068 57.2585 73.4157 56.6774 73.2334 56.3037C73.0511 55.9255 72.7686 55.7363 72.3857 55.7363C72.0075 55.7363 71.7318 55.9232 71.5586 56.2969C71.39 56.666 71.3057 57.2471 71.3057 58.04C71.3057 58.8285 71.39 59.4141 71.5586 59.7969C71.7318 60.1751 72.0075 60.3643 72.3857 60.3643C72.7686 60.3643 73.0511 60.1751 73.2334 59.7969C73.4157 59.4141 73.5068 58.8307 73.5068 58.0469Z" fill="#4F4F4F"/>
<rect x="2.92188" y="27.2354" width="24" height="120" fill="#F6B859"/>
<rect x="49.1611" y="73.3271" width="24" height="73.9082" fill="#52A28C"/>
<rect x="95.4004" y="42.7197" width="24" height="104.516" fill="#9870A8"/>
<line x1="2.36328" y1="146.735" x2="119.4" y2="146.735" stroke="#E0E0E0"/>
</svg>
