<svg width="37" height="37" viewBox="0 0 37 37" fill="none" xmlns="http://www.w3.org/2000/svg">
<g clip-path="url(#clip0)">
<path d="M24.8411 23.2017H33.5266V34.5215H24.8411V23.2017Z" fill="#E83842"/>
<path d="M33.5262 2.55286V26.8684L7.60806 30.2436L4.26904 30.6785V6.363C4.27618 4.25816 5.67777 2.48109 7.60806 1.80278C8.14969 1.61291 8.73279 1.50928 9.33868 1.50928H32.4558C32.7519 1.50928 33.0189 1.62603 33.2131 1.81456C33.4064 2.00389 33.5262 2.26418 33.5262 2.55286Z" fill="#FC5F61"/>
<path d="M7.60806 1.80273V30.2436L4.26904 30.6784V6.36296C4.27618 4.25812 5.67776 2.48105 7.60806 1.80273Z" fill="#E83842"/>
<path d="M31.885 33.4776C30.6817 31.8082 30.6817 29.582 31.885 27.9126L28.1032 26.3813H12.7611L7.28989 27.4946L5.86276 28.886L5.43457 31.5762L7.24237 34.1275L11.0008 34.6842L31.9328 34.4057L31.885 33.4776Z" fill="#E6E6E6"/>
<path d="M6.41083 30.7615C6.44736 32.2812 7.75885 33.4782 9.31781 33.4782H32.4561C33.0475 33.4782 33.5265 33.9455 33.5265 34.5218C33.5265 35.0981 33.0475 35.5654 32.4561 35.5654H9.26453C7.88492 35.5654 6.63632 35.0199 5.73215 34.1391C4.82495 33.2541 4.26465 32.03 4.26932 30.6787C4.27838 27.9834 6.57452 25.8247 9.33896 25.8247H32.4561C33.0475 25.8247 33.5265 26.292 33.5265 26.8683C33.5265 27.4448 33.0475 27.9121 32.4561 27.9121H9.26453C7.66766 27.9121 6.3732 29.1965 6.41083 30.7615Z" fill="#E83842"/>
<path d="M28.5226 14.3313H13.025C12.1618 14.3313 11.4617 13.649 11.4617 12.8073V8.75913C11.4617 7.91746 12.1618 7.23486 13.025 7.23486H28.5226C29.3861 7.23486 30.086 7.91746 30.086 8.75913V12.8073C30.086 13.649 29.3859 14.3313 28.5226 14.3313Z" fill="#E6E6E6"/>
<path d="M33.5266 5.14772C33.8222 5.14772 34.0617 4.91393 34.0617 4.62579V2.55282C34.0617 1.68945 33.3415 0.987305 32.456 0.987305H9.33886C6.25829 0.987305 3.74407 3.39797 3.73391 6.36296V30.6787V30.6801C3.72979 32.1256 4.30492 33.4849 5.35384 34.5081C6.39892 35.5265 7.78759 36.0873 9.26443 36.0873H32.456C33.3415 36.0873 34.0617 35.3852 34.0617 34.5218V6.71323C34.0617 6.42508 33.8222 6.1913 33.5266 6.1913C33.2311 6.1913 32.9913 6.42508 32.9913 6.71323V25.3928C32.8238 25.3347 32.6439 25.3031 32.456 25.3031H16.7195C16.4237 25.3031 16.1842 25.5366 16.1842 25.8247C16.1842 26.1129 16.4237 26.3466 16.7195 26.3466H32.456C32.7513 26.3466 32.9913 26.5807 32.9913 26.8683C32.9913 27.1562 32.7513 27.3902 32.456 27.3902H9.26443C8.34515 27.3902 7.48409 27.744 6.84029 28.3867C6.19677 29.0291 5.85427 29.8767 5.87569 30.7738C5.91827 32.5527 7.46239 34.0001 9.31771 34.0001H32.456C32.7513 34.0001 32.9913 34.2342 32.9913 34.5218C32.9913 34.8097 32.7513 35.0437 32.456 35.0437H9.26443C8.07351 35.0437 6.95345 34.5914 6.11053 33.7704C5.2643 32.9445 4.80041 31.8471 4.80425 30.6803C4.81249 28.2908 6.84661 26.3466 9.33886 26.3466H14.5782C14.874 26.3466 15.1135 26.1129 15.1135 25.8247C15.1135 25.5366 14.874 25.3031 14.5782 25.3031H9.33886C7.47777 25.3031 5.82461 26.1836 4.80425 27.5332V6.36483C4.81249 3.97506 6.84661 2.03089 9.33886 2.03089H32.456C32.7513 2.03089 32.9913 2.26494 32.9913 2.55282V4.62579C32.9913 4.91393 33.2311 5.14772 33.5266 5.14772ZM6.94576 30.7494C6.9312 30.1356 7.16549 29.5556 7.60604 29.1161C8.04659 28.6762 8.63573 28.4338 9.26443 28.4338H30.9619C30.8276 28.7161 30.7191 29.0069 30.6378 29.3036H10.0494C9.75387 29.3036 9.51409 29.5371 9.51409 29.8253C9.51409 30.1134 9.75387 30.3472 10.0494 30.3472H30.4628C30.4474 30.5788 30.4474 30.8113 30.4628 31.0429H10.0494C9.75387 31.0429 9.51409 31.2767 9.51409 31.5648C9.51409 31.853 9.75387 32.0868 10.0494 32.0868H30.6378C30.7191 32.3832 30.8276 32.6743 30.9619 32.9563H9.31771C8.03918 32.9563 6.97488 31.9663 6.94576 30.7494ZM32.456 32.9563H32.1748C31.303 31.5737 31.303 29.8167 32.1748 28.4338H32.456C32.6439 28.4338 32.8238 28.4019 32.9913 28.3441V33.046C32.8238 32.9881 32.6439 32.9563 32.456 32.9563Z" fill="black"/>
<path d="M13.0249 6.71338C11.8678 6.71338 10.9265 7.6311 10.9265 8.75931V12.8075C10.9265 13.9355 11.8678 14.8534 13.0249 14.8534H28.5225C29.6796 14.8534 30.6212 13.9355 30.6212 12.8075V8.75931C30.6212 7.6311 29.6796 6.71338 28.5225 6.71338H13.0249ZM29.5505 8.75931V12.8075C29.5505 13.36 29.0894 13.8099 28.5225 13.8099H13.0249C12.458 13.8099 11.9969 13.36 11.9969 12.8075V8.75931C11.9969 8.20659 12.458 7.75696 13.0249 7.75696H28.5225C29.0894 7.75696 29.5505 8.20659 29.5505 8.75931Z" fill="black"/>
<path d="M27.3031 11.3755H14.2448C13.9492 11.3755 13.7095 11.6093 13.7095 11.8974C13.7095 12.1856 13.9492 12.4193 14.2448 12.4193H27.3031C27.5987 12.4193 27.8382 12.1856 27.8382 11.8974C27.8382 11.6093 27.5987 11.3755 27.3031 11.3755Z" fill="black"/>
<path d="M27.3031 9.14697H14.2448C13.9492 9.14697 13.7095 9.38075 13.7095 9.6689C13.7095 9.95704 13.9492 10.1906 14.2448 10.1906H27.3031C27.5987 10.1906 27.8382 9.95704 27.8382 9.6689C27.8382 9.38075 27.5987 9.14697 27.3031 9.14697Z" fill="black"/>
</g>
<defs>
<clipPath id="clip0">
<rect width="36" height="35.1" fill="white" transform="translate(0.921387 0.987305)"/>
</clipPath>
</defs>
</svg>
