<svg width="33" height="33" viewBox="0 0 33 33" fill="none" xmlns="http://www.w3.org/2000/svg">
<g clip-path="url(#clip0)">
<path d="M27.3425 3.45752H31.9877L30.9554 5.52204L31.9877 7.58655H27.3425V3.45752Z" fill="#FCD770"/>
<path d="M28.3748 28.2318V1.39307H3.60065C2.46052 1.39307 1.53613 2.31745 1.53613 3.45758V30.2963L28.3748 28.2318Z" fill="#ECECEC"/>
<path d="M5.66517 30.2963H1.53613V3.45758C1.53613 2.31745 2.46052 1.39307 3.60065 1.39307H5.66517V30.2963Z" fill="#FB5968"/>
<path d="M28.3748 28.2319H27.3426C26.2025 28.2319 25.2781 29.1563 25.2781 30.2965C25.2781 31.4366 26.2025 32.361 27.3426 32.361H28.3748H3.60065C2.46052 32.361 1.53613 31.4366 1.53613 30.2965C1.53613 29.1563 2.46052 28.2319 3.60065 28.2319H28.3748Z" fill="#ECECEC"/>
<path d="M26.3101 11.7158H7.72949V19.9739H26.3101V11.7158Z" fill="#FCD770"/>
<path d="M26.3101 18.9414H7.72949V19.9737H26.3101V18.9414Z" fill="#FFC729"/>
<path d="M8.78443 10.0155L9.77075 10.319L10.4531 8.1027H13.2639L13.9457 10.319L14.932 10.0155L14.3437 8.1027H14.9553V7.07044H14.0262L12.756 2.94141H10.9609L9.69075 7.07044H8.76172V8.1027H9.37333L8.78443 10.0155ZM11.7238 3.97366H11.9932L12.946 7.07044H10.7705L11.7238 3.97366Z" fill="black"/>
<path d="M20.6327 8.1027C20.6327 7.48695 20.3617 6.93263 19.9323 6.55431C20.3617 6.17599 20.6327 5.62166 20.6327 5.00592C20.6327 3.86734 19.7067 2.94141 18.5682 2.94141H16.5037V10.1672H18.5682C19.7067 10.1672 20.6327 9.24128 20.6327 8.1027ZM17.5359 3.97366H18.5682C19.1375 3.97366 19.6004 4.43663 19.6004 5.00592C19.6004 5.57521 19.1375 6.03818 18.5682 6.03818H17.5359V3.97366ZM17.5359 7.07044H18.5682C19.1375 7.07044 19.6004 7.53341 19.6004 8.1027C19.6004 8.67199 19.1375 9.13495 18.5682 9.13495H17.5359V7.07044Z" fill="black"/>
<path d="M25.2779 10.1672V9.13495C23.855 9.13495 22.6973 7.97728 22.6973 6.55431C22.6973 5.13134 23.855 3.97366 25.2779 3.97366V2.94141C23.2857 2.94141 21.665 4.56205 21.665 6.55431C21.665 8.54657 23.2857 10.1672 25.2779 10.1672Z" fill="black"/>
<path d="M7.21338 20.49H26.8263V11.1997H7.21338V20.49ZM8.24564 12.232H25.794V19.4578H8.24564V12.232Z" fill="black"/>
<path d="M26.3101 21.522H7.72949V22.5542H26.3101V21.522Z" fill="black"/>
<path d="M26.3101 23.5864H7.72949V24.6187H26.3101V23.5864Z" fill="black"/>
<path d="M26.3103 25.6514H25.2781V26.6836H26.3103V25.6514Z" fill="black"/>
<path d="M24.2456 25.6514H7.72949V26.6836H24.2456V25.6514Z" fill="black"/>
<path d="M31.5325 5.52211L32.8229 2.94147H28.891V0.876953H3.60066C2.1777 0.876953 1.02002 2.03463 1.02002 3.4576V30.2963C1.02002 31.7193 2.1777 32.877 3.60066 32.877H27.3426H28.891V31.8447H27.3426C26.4889 31.8447 25.7942 31.15 25.7942 30.2963C25.7942 29.4426 26.4889 28.7479 27.3426 28.7479H28.3749H28.891V8.10276H32.8229L31.5325 5.52211ZM25.2915 31.8447H3.60066C2.74699 31.8447 2.05228 31.15 2.05228 30.2963C2.05228 29.4426 2.74699 28.7479 3.60066 28.7479H25.2915C24.9638 29.1804 24.762 29.7131 24.762 30.2963C24.762 30.8795 24.9638 31.4122 25.2915 31.8447ZM27.3426 27.7157H6.18131V25.6511H5.14905V27.7157H3.60066C3.02002 27.7157 2.48376 27.9087 2.05228 28.2328V3.4576C2.05228 2.60392 2.74699 1.90921 3.60066 1.90921H5.14905V24.6189H6.18131V1.90921H27.8587V27.7157H27.3426ZM31.1527 7.0705H28.891V3.97373H31.1527L30.3785 5.52211L31.1527 7.0705Z" fill="black"/>
<path d="M23.7296 29.7803H5.14893V30.8125H23.7296V29.7803Z" fill="black"/>
<path d="M4.11673 29.7803H3.08447V30.8125H4.11673V29.7803Z" fill="black"/>
</g>
<defs>
<clipPath id="clip0">
<rect width="32" height="32" fill="white" transform="translate(0.921387 0.876953)"/>
</clipPath>
</defs>
</svg>
