<svg width="33" height="33" viewBox="0 0 33 33" fill="none" xmlns="http://www.w3.org/2000/svg">
<g clip-path="url(#clip0)">
<path d="M8.32471 12.2979H4.07471C2.41783 12.2979 1.07471 13.6411 1.07471 15.2979V19.6661C1.07471 21.1158 2.24996 22.2911 3.69971 22.2911H8.69971C10.1495 22.2911 11.3247 21.1158 11.3247 19.6661V15.2979C11.3247 13.6411 9.98158 12.2979 8.32471 12.2979Z" fill="#A0E557"/>
<path d="M8.69971 20.9191H3.69971V32.2504H8.69971V20.9191Z" fill="#6A80FF"/>
<path d="M8.69971 15.563H3.69971V20.9192H8.69971V15.563Z" fill="#A0E557"/>
<path d="M6.19979 6.862C4.91935 6.862 3.88135 7.9 3.88135 9.18044V9.97956C3.88135 11.26 4.91935 12.298 6.19979 12.298C7.48022 12.298 8.51822 11.26 8.51822 9.97956V9.18044C8.51822 7.9 7.48022 6.862 6.19979 6.862Z" fill="#FCC69D"/>
<path d="M11.3248 1.50049C10.0443 1.50049 9.00635 2.53849 9.00635 3.81893V4.61805C9.00635 5.89849 10.0443 6.93649 11.3248 6.93649C12.6052 6.93649 13.6432 5.89849 13.6432 4.61805V3.81893C13.6432 2.53849 12.6052 1.50049 11.3248 1.50049Z" fill="#FCC69D"/>
<path d="M21.5748 1.50049C20.2943 1.50049 19.2563 2.53849 19.2563 3.81893V4.61805C19.2563 5.89849 20.2943 6.93649 21.5748 6.93649C22.8552 6.93649 23.8932 5.89849 23.8932 4.61805V3.81893C23.8932 2.53849 22.8552 1.50049 21.5748 1.50049Z" fill="#FCC69D"/>
<path d="M18.5747 12.2979H14.3247C12.6678 12.2979 11.3247 13.6411 11.3247 15.2979V19.6661C11.3247 21.1158 12.5 22.2911 13.9497 22.2911H18.9497C20.3995 22.2911 21.5747 21.1158 21.5747 19.6661V15.2979C21.5747 13.6411 20.2316 12.2979 18.5747 12.2979Z" fill="#FFC66C"/>
<path d="M18.9497 20.9191H13.9497V32.2504H18.9497V20.9191Z" fill="#6A80FF"/>
<path d="M18.9497 15.563H13.9497V20.9192H18.9497V15.563Z" fill="#FFC66C"/>
<path d="M16.4498 6.862C15.1693 6.862 14.1313 7.9 14.1313 9.18044V9.97956C14.1313 11.26 15.1693 12.298 16.4498 12.298C17.7302 12.298 18.7682 11.26 18.7682 9.97956V9.18044C18.7682 7.9 17.7302 6.862 16.4498 6.862Z" fill="#FCC69D"/>
<path d="M28.8247 12.2979H24.5747C22.9178 12.2979 21.5747 13.6411 21.5747 15.2979V19.6661C21.5747 21.1158 22.75 22.2911 24.1997 22.2911H29.1997C30.6495 22.2911 31.8247 21.1158 31.8247 19.6661V15.2979C31.8247 13.6411 30.4816 12.2979 28.8247 12.2979Z" fill="#72D8FF"/>
<path d="M29.1997 20.9191H24.1997V32.2504H29.1997V20.9191Z" fill="#6A80FF"/>
<path d="M29.1997 15.563H24.1997V20.9192H29.1997V15.563Z" fill="#72D8FF"/>
<path d="M26.6998 6.862C25.4193 6.862 24.3813 7.9 24.3813 9.18044V9.97956C24.3813 11.26 25.4193 12.298 26.6998 12.298C27.9802 12.298 29.0182 11.26 29.0182 9.97956V9.18044C29.0182 7.9 27.9802 6.862 26.6998 6.862Z" fill="#FCC69D"/>
<path d="M3.69971 14.938C3.53533 14.938 3.37408 15.0049 3.25783 15.1211C3.14158 15.2374 3.07471 15.3986 3.07471 15.563C3.07471 15.7274 3.14152 15.8886 3.25783 16.0049C3.37414 16.1211 3.53533 16.188 3.69971 16.188C3.86408 16.188 4.02533 16.1211 4.14152 16.0049C4.25783 15.8886 4.32471 15.7274 4.32471 15.563C4.32471 15.3986 4.25783 15.2374 4.14152 15.1211C4.02533 15.0049 3.86408 14.938 3.69971 14.938Z" fill="black"/>
<path d="M11.3249 7.56155C12.9479 7.56155 14.2684 6.24111 14.2684 4.61811V3.81893C14.2684 2.19593 12.9479 0.875488 11.3249 0.875488C9.70179 0.875488 8.38135 2.19593 8.38135 3.81893V4.61811C8.38135 6.24111 9.70179 7.56155 11.3249 7.56155ZM9.63135 3.81893C9.63135 2.88518 10.3911 2.12549 11.3249 2.12549C12.2586 2.12549 13.0184 2.88518 13.0184 3.81893V4.61811C13.0184 5.55186 12.2587 6.31155 11.3249 6.31155C10.391 6.31155 9.63135 5.55186 9.63135 4.61811V3.81893Z" fill="black"/>
<path d="M21.5748 7.56155C23.1979 7.56155 24.5184 6.24111 24.5184 4.61811V3.81893C24.5184 2.19593 23.1979 0.875488 21.5748 0.875488C19.9518 0.875488 18.6313 2.19593 18.6313 3.81893V4.61811C18.6313 6.24111 19.9518 7.56155 21.5748 7.56155ZM19.8813 3.81893C19.8813 2.88518 20.6411 2.12549 21.5748 2.12549C22.5086 2.12549 23.2684 2.88518 23.2684 3.81893V4.61811C23.2684 5.55186 22.5087 6.31155 21.5748 6.31155C20.641 6.31155 19.8813 5.55186 19.8813 4.61811V3.81893Z" fill="black"/>
<path d="M29.097 11.6843C29.4403 11.2029 29.6431 10.6146 29.6431 9.97956V9.18044C29.6431 7.55744 28.3227 6.237 26.6996 6.237C25.0766 6.237 23.7561 7.55744 23.7561 9.18044V9.97956C23.7561 10.6146 23.959 11.2029 24.3023 11.6843C23.1691 11.7689 22.1793 12.3759 21.5746 13.2656C20.9699 12.3759 19.98 11.769 18.8468 11.6843C19.1902 11.2029 19.393 10.6146 19.393 9.97956V9.18044C19.393 7.55744 18.0726 6.237 16.4495 6.237C14.8265 6.237 13.506 7.55744 13.506 9.18044V9.97956C13.506 10.6146 13.7089 11.2029 14.0522 11.6843C12.919 11.7689 11.9291 12.3759 11.3245 13.2656C10.7198 12.3759 9.72989 11.769 8.59671 11.6843C8.94008 11.2029 9.14289 10.6146 9.14289 9.97956V9.18044C9.14289 7.55744 7.82246 6.237 6.19939 6.237C4.57633 6.237 3.25589 7.55744 3.25589 9.18044V9.97956C3.25589 10.6146 3.45877 11.2029 3.80208 11.6843C1.93039 11.8241 0.449707 13.3909 0.449707 15.298V19.6662C0.449707 21.2444 1.58077 22.5629 3.07471 22.8552V32.2507C3.07471 32.5959 3.35458 32.8757 3.69971 32.8757H8.69971C9.04483 32.8757 9.32471 32.5959 9.32471 32.2507V22.8552C10.1421 22.6953 10.8505 22.2282 11.3247 21.5792C11.799 22.2282 12.5073 22.6953 13.3247 22.8552V32.2507C13.3247 32.5959 13.6046 32.8757 13.9497 32.8757H18.9497C19.2948 32.8757 19.5747 32.5959 19.5747 32.2507V22.8552C20.3921 22.6953 21.1005 22.2282 21.5747 21.5792C22.049 22.2282 22.7573 22.6953 23.5747 22.8552V32.2507C23.5747 32.5959 23.8546 32.8757 24.1997 32.8757H29.1997C29.5448 32.8757 29.8247 32.5959 29.8247 32.2507V29.0632C29.8247 28.718 29.5448 28.4382 29.1997 28.4382C28.8546 28.4382 28.5747 28.718 28.5747 29.0632V31.6257H27.3247V24.0632C27.3247 23.718 27.0448 23.4382 26.6997 23.4382C26.3546 23.4382 26.0747 23.718 26.0747 24.0632V31.6257H24.8247V21.5445H28.5747V24.0632C28.5747 24.4084 28.8546 24.6882 29.1997 24.6882C29.5448 24.6882 29.8247 24.4084 29.8247 24.0632V22.8552C31.3186 22.563 32.4497 21.2444 32.4497 19.6662V15.298C32.4497 13.3909 30.969 11.8241 29.097 11.6843ZM25.0062 9.18044C25.0062 8.24669 25.7659 7.487 26.6997 7.487C27.6335 7.487 28.3932 8.24669 28.3932 9.18044V9.97956C28.3932 10.9133 27.6335 11.673 26.6997 11.673C25.7659 11.673 25.0062 10.9133 25.0062 9.97956V9.18044ZM14.7562 9.18044C14.7562 8.24669 15.5159 7.487 16.4497 7.487C17.3835 7.487 18.1432 8.24669 18.1432 9.18044V9.97956C18.1432 10.9133 17.3835 11.673 16.4497 11.673C15.5159 11.673 14.7562 10.9133 14.7562 9.97956V9.18044ZM4.50621 9.18044C4.50621 8.24669 5.26589 7.487 6.19971 7.487C7.13352 7.487 7.89321 8.24669 7.89321 9.18044V9.97956C7.89321 10.9133 7.13352 11.673 6.19971 11.673C5.26589 11.673 4.50621 10.9133 4.50621 9.97956V9.18044ZM8.07471 31.6257H6.82471V24.0632C6.82471 23.718 6.54483 23.4382 6.19971 23.4382C5.85458 23.4382 5.57471 23.718 5.57471 24.0632V31.6257H4.32471V21.5445H8.07471V31.6257ZM9.32471 21.5656V15.5632C9.32471 15.218 9.04483 14.9382 8.69971 14.9382C8.35458 14.9382 8.07471 15.218 8.07471 15.5632V20.2945H4.32471V17.8132C4.32471 17.468 4.04483 17.1882 3.69971 17.1882C3.35458 17.1882 3.07471 17.468 3.07471 17.8132V21.5656C2.27714 21.3025 1.69971 20.5507 1.69971 19.6662V15.298C1.69971 13.9884 2.76514 12.923 4.07471 12.923H8.32471C9.63427 12.923 10.6997 13.9884 10.6997 15.298V19.6662C10.6997 20.5507 10.1223 21.3025 9.32471 21.5656ZM18.3247 31.6257H17.0747V24.0632C17.0747 23.718 16.7948 23.4382 16.4497 23.4382C16.1046 23.4382 15.8247 23.718 15.8247 24.0632V31.6257H14.5747V21.5445H18.3247V31.6257ZM19.5747 21.5656V15.5632C19.5747 15.218 19.2948 14.9382 18.9497 14.9382C18.6046 14.9382 18.3247 15.218 18.3247 15.5632V20.2945H14.5747V15.5632C14.5747 15.218 14.2948 14.9382 13.9497 14.9382C13.6046 14.9382 13.3247 15.218 13.3247 15.5632V21.5656C12.5271 21.3025 11.9497 20.5507 11.9497 19.6662V15.298C11.9497 13.9884 13.0151 12.923 14.3247 12.923H18.5747C19.8843 12.923 20.9497 13.9884 20.9497 15.298V19.6662C20.9497 20.5507 20.3723 21.3025 19.5747 21.5656ZM31.1997 19.6662C31.1997 20.5507 30.6223 21.3025 29.8247 21.5656V20.9195V15.5632C29.8247 15.218 29.5448 14.9382 29.1997 14.9382C28.8546 14.9382 28.5747 15.218 28.5747 15.5632V20.2945H24.8247V15.5632C24.8247 15.218 24.5448 14.9382 24.1997 14.9382C23.8546 14.9382 23.5747 15.218 23.5747 15.5632V21.5656C22.7771 21.3025 22.1997 20.5507 22.1997 19.6662V15.298C22.1997 13.9884 23.2651 12.923 24.5747 12.923H28.8247C30.1343 12.923 31.1997 13.9884 31.1997 15.298V19.6662Z" fill="black"/>
<path d="M29.1997 25.9598C29.0353 25.9598 28.8741 26.0267 28.7578 26.1429C28.6416 26.2592 28.5747 26.4204 28.5747 26.5848C28.5747 26.7498 28.6415 26.9104 28.7578 27.0267C28.8741 27.1429 29.0353 27.2098 29.1997 27.2098C29.3641 27.2098 29.5253 27.1429 29.6415 27.0267C29.7578 26.9104 29.8247 26.7492 29.8247 26.5848C29.8247 26.4204 29.7578 26.2592 29.6415 26.1429C29.5253 26.0267 29.3647 25.9598 29.1997 25.9598Z" fill="black"/>
</g>
<defs>
<clipPath id="clip0">
<rect width="32" height="32" fill="white" transform="translate(0.449707 0.875488)"/>
</clipPath>
</defs>
</svg>
