<svg width="37" height="37" viewBox="0 0 37 37" fill="none" xmlns="http://www.w3.org/2000/svg">
<g clip-path="url(#clip0)">
<path d="M29.6152 0.733887V9.74406C29.6152 19.3887 24.8274 27.2071 18.9214 27.2071C13.0151 27.2071 8.22729 19.3887 8.22729 9.74406V0.733887H29.6152Z" fill="#F7D360"/>
<path d="M26.6188 34.7389V35.6606H11.2236V34.7389C11.2236 33.0269 12.612 31.6391 14.3243 31.6391H14.335C15.2207 31.6391 15.8574 30.7887 15.6108 29.9376C15.5223 29.6324 15.4745 29.3102 15.4745 28.976C15.4745 27.0259 17.0947 25.4543 19.0621 25.5326C20.027 25.571 20.896 26.0138 21.5005 26.6952C21.9537 27.2077 22.2597 27.8543 22.3437 28.5662C22.3528 28.639 22.3586 28.7123 22.363 28.7865C22.3844 29.1828 22.3388 29.5649 22.2361 29.9233C21.9916 30.7816 22.6167 31.6391 23.5083 31.6391H23.519C25.2312 31.6391 26.6188 33.0269 26.6188 34.7389Z" fill="#F7D360"/>
<path d="M18.9209 27.2074C18.5138 27.2074 18.1117 27.1703 17.7162 27.0975C17.2471 27.0121 16.7868 26.8767 16.3385 26.6941C11.6798 24.808 8.22705 17.9347 8.22705 9.74434V0.733887H12.8237V9.74434C12.8237 17.3345 14.5145 23.7939 16.8758 26.2008C17.1661 26.4966 17.4655 26.7306 17.7739 26.8987C18.1452 27.1011 18.5287 27.2074 18.9209 27.2074Z" fill="#E58E13"/>
<path d="M22.3437 28.5663C22.2597 27.8543 21.9537 27.2078 21.5005 26.6953C21.4681 26.7085 20.464 26.8864 19.59 27.0271C18.6584 27.177 17.702 26.9202 16.9871 26.3042C16.9445 26.2676 16.9069 26.233 16.8758 26.2012C16.6792 26.3467 16.4995 26.5121 16.3386 26.6945C15.8003 27.3017 15.4745 28.1007 15.4745 28.976C15.4745 29.3103 15.5218 29.6325 15.6107 29.9376C15.8574 30.7888 15.2207 31.6391 14.3341 31.6391H14.3234C12.6115 31.6391 11.2236 33.027 11.2236 34.7389V35.6607H15.7105V34.7389C15.7105 33.027 16.29 31.6391 17.0035 31.6391H17.0085C17.3776 31.6391 17.6435 30.7888 17.5402 29.9376C17.5397 29.9343 17.5394 29.931 17.5391 29.9277C17.4762 29.3823 17.9489 28.9326 18.4936 29.003C19.8809 29.1823 21.2794 28.9002 22.3437 28.5663Z" fill="#E58E13"/>
<path d="M25.8355 13.2268C25.8355 9.09351 22.7398 5.74268 18.9215 5.74268C15.103 5.74268 12.0076 9.09351 12.0076 13.2268C12.0076 17.3605 15.103 20.7113 18.9215 20.7113C22.7398 20.7113 25.8355 17.3605 25.8355 13.2268Z" fill="#E58E13"/>
<path d="M18.9214 8.45166L20.3249 11.2955L23.4632 11.7514L21.1923 13.9652L21.7284 17.0908L18.9214 15.615L16.1141 17.0908L16.6503 13.9652L14.3794 11.7514L17.5179 11.2955L18.9214 8.45166Z" fill="#F7D360"/>
<path d="M11.8039 23.6893C11.9091 23.8272 12.0684 23.8997 12.2296 23.8997C12.3425 23.8997 12.4565 23.864 12.5532 23.7901C12.788 23.6113 12.8333 23.2757 12.6542 23.0409C10.1807 19.7963 8.76178 14.95 8.76178 9.74437V1.26895H22.6991C22.9946 1.26895 23.2338 1.02945 23.2338 0.734193C23.2338 0.438935 22.9946 0.199707 22.6991 0.199707H8.22729C7.93203 0.199707 7.69253 0.438935 7.69253 0.734193V2.2591C6.97155 1.8927 6.16268 1.72983 5.39584 1.81442C4.31753 1.93363 3.36336 2.51673 2.63634 3.50083C0.835131 5.93842 0.430833 9.20439 1.52755 12.4613C2.16146 14.3433 3.26284 16.0958 4.71276 17.5293C6.19619 18.9954 8.02185 20.0924 10.0052 20.7142C10.5256 21.8016 11.1271 22.8014 11.8039 23.6893ZM5.4645 16.769C4.13241 15.4523 3.12139 13.8447 2.54076 12.1202C1.55721 9.1989 1.90548 6.28916 3.4963 4.13611C4.04946 3.38739 4.72787 2.96387 5.51339 2.87735C6.2525 2.79551 7.05093 3.03226 7.69253 3.51346V9.74437C7.69253 13.2092 8.30255 16.5298 9.42096 19.3706C7.94989 18.7754 6.59829 17.8896 5.4645 16.769Z" fill="black"/>
<path d="M35.2058 3.50083C34.4788 2.51673 33.5246 1.93363 32.4463 1.81443C31.6792 1.72983 30.8706 1.89243 30.1499 2.25882V0.734193C30.1499 0.438935 29.9104 0.199707 29.6151 0.199707H24.8374C24.5422 0.199707 24.303 0.438935 24.303 0.734193C24.303 1.02945 24.5422 1.26895 24.8374 1.26895H29.0806V9.74437C29.0806 13.6434 28.3006 17.3109 26.8251 20.35C25.4172 23.2496 23.4559 25.3266 21.302 26.1986C21.1411 26.2637 21.0219 26.4027 20.9823 26.5716C20.9425 26.7405 20.9873 26.9182 21.1024 27.0481C21.5737 27.581 21.8332 28.2657 21.8332 28.9765C21.8332 29.2498 21.7956 29.5203 21.7209 29.7802C21.5566 30.3534 21.6679 30.9546 22.026 31.4295C22.3823 31.9022 22.9264 32.1735 23.5185 32.1735C24.9333 32.1735 26.0841 33.3244 26.0841 34.7391V35.1261H11.7582V34.7391C11.7582 33.3244 12.909 32.1735 14.3238 32.1735H18.4225C18.7178 32.1735 18.957 31.934 18.957 31.6388C18.957 31.3435 18.7178 31.1043 18.4225 31.1043H16.0135C16.209 30.6951 16.25 30.2292 16.1214 29.7802C16.047 29.5203 16.0091 29.2498 16.0091 28.9765C16.0091 28.2657 16.2689 27.581 16.74 27.0484C16.855 26.9185 16.8998 26.7408 16.86 26.5716C16.8204 26.4027 16.7012 26.2637 16.5403 26.1986C15.6553 25.8402 14.8009 25.2813 14.0002 24.5367C13.7841 24.3356 13.4457 24.348 13.2447 24.5641C13.0436 24.7803 13.056 25.1184 13.2721 25.3194C13.9829 25.9805 14.7366 26.5131 15.5199 26.9083C15.1428 27.5277 14.9401 28.2418 14.9401 28.9765C14.9401 29.3495 14.9918 29.7189 15.0937 30.0746C15.1645 30.3223 15.1167 30.5816 14.9626 30.786C14.8102 30.9884 14.5773 31.1043 14.3238 31.1043C12.3196 31.1043 10.689 32.7349 10.689 34.7391V35.6606C10.689 35.9559 10.9282 36.1954 11.2235 36.1954H26.6189C26.9141 36.1954 27.1534 35.9559 27.1534 35.6606V34.7391C27.1534 32.7349 25.5227 31.1043 23.5185 31.1043C23.265 31.1043 23.0321 30.9884 22.8797 30.786C22.7256 30.5816 22.6778 30.3223 22.7487 30.0746C22.8506 29.7189 22.9022 29.3495 22.9022 28.9765C22.9022 28.2421 22.6998 27.528 22.3227 26.9086C24.5655 25.7787 26.4686 23.5789 27.8367 20.7145C29.8203 20.093 31.6462 18.9962 33.1297 17.5298C34.5798 16.0967 35.6812 14.3441 36.3151 12.4621C37.4118 9.20494 37.0076 5.9387 35.2058 3.50083ZM35.3019 12.1207C34.721 13.8453 33.71 15.4529 32.3782 16.7693C31.2436 17.8907 29.8912 18.7768 28.4193 19.3717C29.5223 16.5669 30.1499 13.2537 30.1499 9.74437V3.51319C30.7918 3.03226 31.5902 2.79578 32.3287 2.87735C33.1143 2.96415 33.7927 3.3874 34.3458 4.13611C35.9372 6.28916 36.2855 9.19945 35.3019 12.1207Z" fill="black"/>
<path d="M11.4727 13.2272C11.4727 17.6489 14.8142 21.2461 18.9214 21.2461C23.0284 21.2461 26.3699 17.6489 26.3699 13.2272C26.3699 8.8057 23.0284 5.2085 18.9214 5.2085C14.8142 5.2085 11.4727 8.8057 11.4727 13.2272ZM25.3006 13.2272C25.3006 17.0595 22.439 20.1768 18.9214 20.1768C15.4036 20.1768 12.5419 17.0595 12.5419 13.2272C12.5419 9.39512 15.4036 6.27774 18.9214 6.27774C22.439 6.27774 25.3006 9.39512 25.3006 13.2272Z" fill="black"/>
<path d="M18.4418 8.21549L17.1627 10.8072L14.3024 11.2227C14.1011 11.2521 13.9338 11.393 13.8709 11.5866C13.808 11.7803 13.8605 11.9926 14.006 12.1346L16.0759 14.152L15.5873 17.0007C15.5529 17.2012 15.6353 17.4039 15.7998 17.5237C15.9646 17.6431 16.1827 17.6591 16.3629 17.5643L18.9213 16.2193L21.4795 17.5643C21.5578 17.6055 21.6432 17.6258 21.7281 17.6258C21.8391 17.6258 21.9495 17.5912 22.0426 17.5237C22.2071 17.4042 22.2895 17.2015 22.2552 17.0007L21.7665 14.1522L23.8364 12.1346C23.9819 11.9926 24.0344 11.7803 23.9715 11.5866C23.9086 11.3933 23.7413 11.2521 23.5397 11.223L20.6797 10.8072L19.4006 8.21549C19.3105 8.03311 19.1246 7.91748 18.9211 7.91748C18.7176 7.91748 18.5319 8.03284 18.4418 8.21549ZM19.8453 11.5323C19.9233 11.6902 20.0738 11.7995 20.248 11.8248L22.3142 12.1253L20.819 13.5826C20.6929 13.7056 20.6355 13.8825 20.6652 14.0558L21.0181 16.1138L19.1699 15.1424C19.0142 15.0605 18.8282 15.0603 18.6725 15.1424L16.8241 16.1141L17.177 14.0558C17.2069 13.8825 17.1492 13.7056 17.0235 13.5829L15.5279 12.1253L17.5945 11.8248C17.7686 11.7995 17.9191 11.6902 17.9968 11.5325L18.9211 9.65991L19.8453 11.5323Z" fill="black"/>
</g>
<defs>
<clipPath id="clip0">
<rect width="36" height="36" fill="white" transform="translate(0.921387 0.129395)"/>
</clipPath>
</defs>
</svg>
