<svg width="37" height="37" viewBox="0 0 37 37" fill="none" xmlns="http://www.w3.org/2000/svg">
<g clip-path="url(#clip0)">
<path d="M31.0149 4.24316H6.89771C6.43171 4.24316 6.05396 4.62092 6.05396 5.08691V31.5244C6.05396 31.9904 6.43171 32.3682 6.89771 32.3682H31.0149C31.4809 32.3682 31.8586 31.9904 31.8586 31.5244V5.08691C31.8586 4.62092 31.4809 4.24316 31.0149 4.24316Z" fill="url(#paint0_linear)"/>
<path d="M9.35864 4.24316H28.4836V28.9932H9.35864V4.24316Z" fill="url(#paint1_linear)"/>
<path d="M21.7336 4.24316C21.7336 3.49724 21.4373 2.78187 20.9099 2.25443C20.3824 1.72698 19.6671 1.43066 18.9211 1.43066C18.1752 1.43066 17.4599 1.72698 16.9324 2.25443C16.405 2.78187 16.1086 3.49724 16.1086 4.24316H13.8586V8.18066H23.9836V4.24316H21.7336Z" fill="url(#paint2_linear)"/>
<path d="M28.4836 35.1807C31.9009 35.1807 34.6711 32.4104 34.6711 28.9932C34.6711 25.5759 31.9009 22.8057 28.4836 22.8057C25.0664 22.8057 22.2961 25.5759 22.2961 28.9932C22.2961 32.4104 25.0664 35.1807 28.4836 35.1807Z" fill="url(#paint3_linear)"/>
<path d="M18.9211 5.08691C19.3871 5.08691 19.7649 4.70915 19.7649 4.24316C19.7649 3.77717 19.3871 3.39941 18.9211 3.39941C18.4552 3.39941 18.0774 3.77717 18.0774 4.24316C18.0774 4.70915 18.4552 5.08691 18.9211 5.08691Z" fill="black"/>
<path d="M12.7336 15.7744H16.1086C16.3324 15.7744 16.547 15.6855 16.7053 15.5273C16.8635 15.3691 16.9524 15.1544 16.9524 14.9307V11.5557C16.9524 11.3319 16.8635 11.1173 16.7053 10.959C16.547 10.8008 16.3324 10.7119 16.1086 10.7119H12.7336C12.5099 10.7119 12.2953 10.8008 12.137 10.959C11.9788 11.1173 11.8899 11.3319 11.8899 11.5557V14.9307C11.8899 15.1544 11.9788 15.3691 12.137 15.5273C12.2953 15.6855 12.5099 15.7744 12.7336 15.7744ZM13.5774 12.3994H15.2649V14.0869H13.5774V12.3994Z" fill="black"/>
<path d="M12.7336 23.0869H16.1086C16.3324 23.0869 16.547 22.998 16.7053 22.8398C16.8635 22.6816 16.9524 22.4669 16.9524 22.2432V18.8682C16.9524 18.6444 16.8635 18.4298 16.7053 18.2715C16.547 18.1133 16.3324 18.0244 16.1086 18.0244H12.7336C12.5099 18.0244 12.2953 18.1133 12.137 18.2715C11.9788 18.4298 11.8899 18.6444 11.8899 18.8682V22.2432C11.8899 22.4669 11.9788 22.6816 12.137 22.8398C12.2953 22.998 12.5099 23.0869 12.7336 23.0869ZM13.5774 19.7119H15.2649V21.3994H13.5774V19.7119Z" fill="black"/>
<path d="M19.4836 14.0869H24.5461C24.7699 14.0869 24.9845 13.998 25.1428 13.8398C25.301 13.6816 25.3899 13.4669 25.3899 13.2432C25.3899 13.0194 25.301 12.8048 25.1428 12.6465C24.9845 12.4883 24.7699 12.3994 24.5461 12.3994H19.4836C19.2599 12.3994 19.0453 12.4883 18.887 12.6465C18.7288 12.8048 18.6399 13.0194 18.6399 13.2432C18.6399 13.4669 18.7288 13.6816 18.887 13.8398C19.0453 13.998 19.2599 14.0869 19.4836 14.0869Z" fill="black"/>
<path d="M19.4836 21.3994H24.5461C24.7699 21.3994 24.9845 21.3105 25.1428 21.1523C25.301 20.9941 25.3899 20.7794 25.3899 20.5557C25.3899 20.3319 25.301 20.1173 25.1428 19.959C24.9845 19.8008 24.7699 19.7119 24.5461 19.7119H19.4836C19.2599 19.7119 19.0453 19.8008 18.887 19.959C18.7288 20.1173 18.6399 20.3319 18.6399 20.5557C18.6399 20.7794 18.7288 20.9941 18.887 21.1523C19.0453 21.3105 19.2599 21.3994 19.4836 21.3994Z" fill="black"/>
<path d="M32.7024 23.3719V5.08707C32.7019 4.63968 32.5239 4.21076 32.2076 3.8944C31.8912 3.57805 31.4623 3.40009 31.0149 3.39957H22.479C22.2888 2.59896 21.8341 1.88589 21.1885 1.37566C20.5429 0.865441 19.744 0.587891 18.9211 0.587891C18.0982 0.587891 17.2994 0.865441 16.6538 1.37566C16.0082 1.88589 15.5535 2.59896 15.3633 3.39957H6.89771C6.45031 3.40007 6.02138 3.57802 5.70502 3.89438C5.38866 4.21074 5.21071 4.63967 5.21021 5.08707V31.5246C5.21071 31.972 5.38866 32.4009 5.70502 32.7173C6.02138 33.0336 6.45031 33.2116 6.89771 33.2121H22.8622C23.4664 34.0179 24.2366 34.6845 25.1208 35.1666C26.0051 35.6488 26.9826 35.9354 27.9872 36.0068C28.9918 36.0783 30 35.9331 30.9436 35.5809C31.8871 35.2288 32.744 34.678 33.4562 33.9659C34.1683 33.2537 34.7191 32.3968 35.0713 31.4533C35.4234 30.5097 35.5686 29.5014 35.4972 28.4968C35.4257 27.4922 35.1392 26.5147 34.657 25.6305C34.1748 24.7463 33.5082 23.9761 32.7024 23.3719ZM31.0149 22.4337C30.4722 22.2235 29.9052 22.0822 29.3274 22.0129V5.08707H31.0149V22.4337ZM16.1086 5.08707C16.3175 5.08709 16.5189 5.00964 16.674 4.86972C16.829 4.7298 16.9267 4.53735 16.948 4.32959C16.9509 4.30093 16.9524 4.27213 16.9524 4.24332C16.9524 3.72118 17.1598 3.22042 17.529 2.8512C17.8982 2.48199 18.399 2.27457 18.9211 2.27457C19.4433 2.27457 19.944 2.48199 20.3133 2.8512C20.6825 3.22042 20.8899 3.72118 20.8899 4.24332C20.8899 4.4671 20.9788 4.68171 21.137 4.83994C21.2953 4.99818 21.5099 5.08707 21.7336 5.08707H23.1399V7.33707H14.7024V5.08707H16.1086ZM13.0149 5.08707V8.18082C13.0149 8.4046 13.1038 8.61921 13.262 8.77744C13.4203 8.93568 13.6349 9.02457 13.8586 9.02457H23.9836C24.2074 9.02457 24.422 8.93568 24.5803 8.77744C24.7385 8.61921 24.8274 8.4046 24.8274 8.18082V5.08707H27.6399V22.0129C26.0788 22.204 24.6265 22.912 23.5144 24.0241C22.4023 25.1362 21.6943 26.5885 21.5032 28.1496H10.2024V5.08707H13.0149ZM6.89771 31.5246V5.08707H8.51489V28.9933C8.51489 29.2171 8.60379 29.4317 8.76202 29.5899C8.92025 29.7482 9.13487 29.8371 9.35864 29.8371H21.5032C21.5725 30.4149 21.7139 30.9818 21.924 31.5246H6.89771ZM28.4836 34.3371C27.4267 34.3371 26.3936 34.0237 25.5148 33.4365C24.636 32.8493 23.9511 32.0147 23.5467 31.0383C23.1422 30.0618 23.0364 28.9874 23.2426 27.9508C23.4488 26.9142 23.9577 25.9621 24.705 25.2147C25.4524 24.4674 26.4045 23.9584 27.4411 23.7523C28.4777 23.5461 29.5522 23.6519 30.5286 24.0563C31.5051 24.4608 32.3396 25.1457 32.9268 26.0245C33.514 26.9033 33.8274 27.9364 33.8274 28.9933C33.8258 30.4101 33.2623 31.7684 32.2605 32.7702C31.2587 33.772 29.9004 34.3355 28.4836 34.3371Z" fill="black"/>
<path d="M30.6996 26.7091L27.9212 29.4874L26.8303 28.3966C26.6716 28.2405 26.4577 28.1534 26.2351 28.1543C26.0125 28.1552 25.7993 28.244 25.6419 28.4014C25.4845 28.5588 25.3957 28.772 25.3948 28.9946C25.3939 29.2172 25.481 29.4311 25.6371 29.5898L27.3246 31.2773C27.4828 31.4355 27.6974 31.5244 27.9212 31.5244C28.1449 31.5244 28.3595 31.4355 28.5178 31.2773L31.8928 27.9023C32.0489 27.7436 32.136 27.5297 32.1351 27.3071C32.1341 27.0845 32.0453 26.8713 31.8879 26.7139C31.7305 26.5565 31.5173 26.4677 31.2947 26.4668C31.0722 26.4659 30.8582 26.553 30.6996 26.7091Z" fill="black"/>
</g>
<defs>
<linearGradient id="paint0_linear" x1="5.72102" y1="31.5409" x2="32.1916" y2="5.07039" gradientUnits="userSpaceOnUse">
<stop stop-color="#D46669"/>
<stop offset="1" stop-color="#DD888A"/>
</linearGradient>
<linearGradient id="paint1_linear" x1="7.95239" y1="27.5869" x2="29.8899" y2="5.64941" gradientUnits="userSpaceOnUse">
<stop offset="0.011" stop-color="#DCDCE3"/>
<stop offset="1" stop-color="#EDEDF1"/>
</linearGradient>
<linearGradient id="paint2_linear" x1="15.4055" y1="9.72754" x2="22.4368" y2="2.69629" gradientUnits="userSpaceOnUse">
<stop offset="0.011" stop-color="#606082"/>
<stop offset="1" stop-color="#83839E"/>
</linearGradient>
<linearGradient id="paint3_linear" x1="24.1084" y1="33.3684" x2="32.8588" y2="24.618" gradientUnits="userSpaceOnUse">
<stop offset="0.011" stop-color="#60C6BE"/>
<stop offset="1" stop-color="#80D1CB"/>
</linearGradient>
<clipPath id="clip0">
<rect width="36" height="36" fill="white" transform="translate(0.921143 0.305664)"/>
</clipPath>
</defs>
</svg>
