<svg width="37" height="37" viewBox="0 0 37 37" fill="none" xmlns="http://www.w3.org/2000/svg">
<g clip-path="url(#clip0)">
<path d="M30.9214 2.34326H3.92141C2.26759 2.34326 0.921387 3.68876 0.921387 5.34329V34.5933C0.921387 34.8965 1.10448 35.1704 1.38425 35.2861C1.4765 35.325 1.57466 35.3433 1.67134 35.3433C1.86618 35.3433 2.05806 35.2672 2.20164 35.1236L9.48193 27.8433H30.9214C32.5752 27.8433 33.9214 26.4979 33.9214 24.8433V5.34329C33.9214 3.68876 32.5752 2.34326 30.9214 2.34326Z" fill="black"/>
<path d="M32.4214 24.8432C32.4214 25.6701 31.749 26.3432 30.9214 26.3432H9.17139C8.97219 26.3432 8.78171 26.4223 8.64109 26.5629L2.42139 32.7827V5.34324C2.42139 4.51636 3.09379 3.84326 3.92136 3.84326H30.9214C31.7491 3.84326 32.4214 4.51636 32.4214 5.34324V24.8432Z" fill="#15BEF0"/>
<path opacity="0.1" d="M30.9214 3.84326V21.1288C30.9214 23.1803 29.2584 24.8433 27.207 24.8433H7.67141C7.4725 24.8433 7.28174 24.9223 7.14111 25.0629L4.54271 27.6614C3.18449 29.0197 2.42139 30.8619 2.42139 32.7828L8.64123 26.5629C8.78186 26.4223 8.97254 26.3433 9.17139 26.3433H30.9214C31.7498 26.3433 32.4213 25.6718 32.4213 24.8434V5.34324C32.4214 4.51636 31.7491 3.84326 30.9214 3.84326Z" fill="black"/>
<path d="M25.6714 11.3432H9.17141C8.75685 11.3432 8.42139 11.0078 8.42139 10.5932C8.42139 10.1787 8.75692 9.84326 9.17141 9.84326H25.6714C26.086 9.84326 26.4215 10.1787 26.4215 10.5933C26.4215 11.0078 26.086 11.3432 25.6714 11.3432Z" fill="black"/>
<path d="M24.17 15.8432H9.17141C8.75685 15.8432 8.42139 15.5078 8.42139 15.0932C8.42139 14.6787 8.75692 14.3433 9.17141 14.3433H24.17C24.5846 14.3433 24.92 14.6787 24.92 15.0933C24.92 15.5078 24.5846 15.8432 24.17 15.8432Z" fill="black"/>
<path d="M18.1714 20.3433H9.17141C8.75685 20.3433 8.42139 20.0078 8.42139 19.5933C8.42139 19.1787 8.75685 18.8433 9.17141 18.8433H18.1714C18.586 18.8433 18.9214 19.1787 18.9214 19.5933C18.9214 20.0079 18.586 20.3433 18.1714 20.3433Z" fill="black"/>
<path d="M34.0503 5.34326C33.2929 5.34326 32.5532 5.65018 32.02 6.18406L22.8911 15.3115C22.7856 15.4163 22.7153 15.5495 22.686 15.6946L21.9359 19.4461C21.8862 19.6921 21.9638 19.9463 22.141 20.1235C22.2831 20.2656 22.475 20.3432 22.6713 20.3432C22.7197 20.3432 22.7695 20.3381 22.8178 20.3286L26.5664 19.5786C26.7128 19.5493 26.8461 19.4783 26.9501 19.3735L34.4508 11.874C34.4508 11.874 34.4513 11.8737 34.4516 11.8735C34.4519 11.8732 34.4519 11.873 34.4519 11.873L36.0806 10.2445C36.0806 10.2445 36.0806 10.2445 36.0806 10.2438C36.6152 9.70918 36.9214 8.96942 36.9214 8.21426C36.9214 6.63089 35.6338 5.34326 34.0503 5.34326Z" fill="black"/>
<path d="M26.0508 18.1524L23.6279 18.6373L24.1127 16.2115L30.921 9.40332L32.8607 11.343L26.0508 18.1524Z" fill="white"/>
<path d="M35.0202 9.18411L33.9215 10.2827L31.9817 8.34289L33.0807 7.2439C33.3356 6.98972 33.6886 6.84326 34.0504 6.84326C34.8063 6.84326 35.4215 7.4585 35.4215 8.21436C35.4216 8.57471 35.2751 8.92852 35.0202 9.18411Z" fill="#FFCA28"/>
<path d="M26.9502 19.3732C26.8462 19.478 26.7129 19.549 26.5664 19.5783L22.8179 20.3283C22.7695 20.3378 22.7197 20.343 22.6714 20.343C22.4751 20.343 22.2832 20.2653 22.1411 20.1232L28.3608 26.3429H30.9214C31.749 26.3429 32.4214 25.6698 32.4214 24.843V13.9028L26.9502 19.3732Z" fill="url(#paint0_linear)"/>
<path d="M34.0503 5.34329C34.0069 5.34329 33.9647 5.35418 33.9214 5.35622V5.34329C33.9214 3.68876 32.5752 2.34326 30.9214 2.34326H3.92141C2.26759 2.34326 0.921387 3.68876 0.921387 5.34329V34.5933C0.921387 34.8965 1.10448 35.1704 1.38425 35.2861C1.4765 35.325 1.57466 35.3433 1.67134 35.3433C1.86618 35.3433 2.05806 35.2672 2.20164 35.1236L9.48193 27.8433H30.9214C32.5752 27.8433 33.9214 26.4979 33.9214 24.8433V12.4034L34.4509 11.8741C34.4509 11.8741 34.4515 11.8738 34.4517 11.8735C34.452 11.8732 34.452 11.873 34.452 11.873L36.0807 10.2446C36.0807 10.2446 36.0807 10.2446 36.0807 10.2439C36.6153 9.7092 36.9215 8.96944 36.9215 8.21429C36.9214 6.63092 35.6338 5.34329 34.0503 5.34329Z" fill="url(#paint1_linear)"/>
</g>
<defs>
<linearGradient id="paint0_linear" x1="26.2698" y1="16.0016" x2="34.0734" y2="23.8157" gradientUnits="userSpaceOnUse">
<stop stop-opacity="0.1"/>
<stop offset="1" stop-opacity="0"/>
</linearGradient>
<linearGradient id="paint1_linear" x1="-1.71336" y1="10.3312" x2="33.371" y2="26.6899" gradientUnits="userSpaceOnUse">
<stop stop-color="white" stop-opacity="0.2"/>
<stop offset="1" stop-color="white" stop-opacity="0"/>
</linearGradient>
<clipPath id="clip0">
<rect width="36" height="36" fill="white" transform="translate(0.921387 0.843262)"/>
</clipPath>
</defs>
</svg>
