<svg width="24" height="25" viewBox="0 0 24 25" fill="none" xmlns="http://www.w3.org/2000/svg">
<g clip-path="url(#clip0)">
<path d="M23.6001 23.6605H0.404801C0.183946 23.6605 0.00488281 23.4814 0.00488281 23.2605C0.00488281 23.0397 0.183946 22.8606 0.404801 22.8606H23.2002V4.46438C23.2002 4.24352 23.3792 4.06446 23.6001 4.06446C23.8209 4.06446 24 4.24352 24 4.46438V23.2605C24 23.4814 23.821 23.6605 23.6001 23.6605Z" fill="#5A6470"/>
<path d="M2.40442 12.8627H7.20345V21.6609H2.40442V12.8627Z" fill="#FDBD40"/>
<path d="M9.60291 8.06364H14.4019V21.6609H9.60291V8.06364Z" fill="#E9686A"/>
<path d="M16.8015 4.06446H21.6005V21.6609H16.8015V4.06446Z" fill="#238892"/>
<path d="M8.40319 2.86471L9.72012 4.18164L6.4036 7.49817L5.48659 6.58115C5.33042 6.42503 5.07727 6.42503 4.92111 6.58115L0.122092 11.3802C-0.0367752 11.5336 -0.0411743 11.7868 0.112244 11.9457C0.265663 12.1045 0.518861 12.1089 0.677728 11.9555C0.681077 11.9523 0.684327 11.949 0.687576 11.9457L5.20385 7.42938L6.12086 8.34639C6.27703 8.50251 6.53018 8.50251 6.68634 8.34639L10.2856 4.74713L11.6025 6.06406L12.0025 2.46479L8.40319 2.86471Z" fill="#E9686A"/>
<path d="M23.6001 4.06446C23.3792 4.06446 23.2002 4.24352 23.2002 4.46438V22.8606H0.404801C0.183946 22.8606 0.00488281 23.0397 0.00488281 23.2605C0.00488281 23.4814 0.183946 23.6605 0.404801 23.6605H23.6001C23.8209 23.6605 24 23.4814 24 23.2605V4.46438C24 4.24347 23.821 4.06446 23.6001 4.06446Z" fill="black"/>
<path d="M2.40443 12.4627C2.18358 12.4627 2.00452 12.6418 2.00452 12.8627V21.6609C2.00452 21.8817 2.18358 22.0608 2.40443 22.0608H7.20345C7.4243 22.0608 7.60337 21.8817 7.60337 21.6609V12.8627C7.60337 12.6418 7.4243 12.4627 7.20345 12.4627H2.40443ZM6.80353 21.2609H2.80435V13.2626H6.80353V21.2609Z" fill="black"/>
<path d="M9.60292 7.66373C9.38207 7.66373 9.203 7.84279 9.203 8.06365V21.6609C9.203 21.8817 9.38207 22.0608 9.60292 22.0608H14.402C14.6228 22.0608 14.8019 21.8817 14.8019 21.6609V8.06365C14.8019 7.84279 14.6228 7.66373 14.402 7.66373H9.60292ZM14.002 21.261H10.0028V8.46356H14.002V21.261Z" fill="black"/>
<path d="M16.8015 22.0608H21.6005C21.8213 22.0608 22.0004 21.8817 22.0004 21.6609V4.06446C22.0004 3.84361 21.8213 3.66454 21.6005 3.66454H16.8015C16.5806 3.66454 16.4016 3.84361 16.4016 4.06446V21.6609C16.4016 21.8817 16.5806 22.0608 16.8015 22.0608ZM17.2014 4.46438H21.2006V21.2609H17.2014V4.46438Z" fill="black"/>
<path d="M0.122094 11.9457C0.278262 12.1018 0.531411 12.1018 0.687579 11.9457L5.20386 7.42938L6.12088 8.34639C6.27704 8.50251 6.53019 8.50251 6.68636 8.34639L10.0029 5.02987L11.3198 6.3468C11.4763 6.50272 11.7295 6.50227 11.8854 6.3458C11.9495 6.28146 11.9898 6.19713 11.9997 6.10685L12.3996 2.50758C12.4229 2.28793 12.2638 2.09102 12.0441 2.06767C12.016 2.06467 11.9877 2.06467 11.9597 2.06767L8.36042 2.46759C8.14087 2.49154 7.98225 2.6889 8.00619 2.9085C8.01604 2.99883 8.05633 3.08312 8.12047 3.14745L9.4374 4.46438L6.40362 7.49817L5.4866 6.58115C5.33044 6.42503 5.07729 6.42503 4.92112 6.58115L0.122094 11.3802C-0.0340247 11.5363 -0.0340247 11.7895 0.122094 11.9457ZM11.5498 2.9175L11.297 5.19264L9.27464 3.17025L11.5498 2.9175Z" fill="black"/>
</g>
<defs>
<clipPath id="clip0">
<rect width="24" height="24" fill="white" transform="translate(0 0.862915)"/>
</clipPath>
</defs>
</svg>
