<svg width="33" height="33" viewBox="0 0 33 33" fill="none" xmlns="http://www.w3.org/2000/svg">
<g clip-path="url(#clip0)">
<path d="M30.3127 30.7875V2.07307C30.3097 1.45844 29.8122 0.960946 29.1976 0.958008H6.88557C6.27094 0.960946 5.77345 1.45844 5.77051 2.07307V4.69276H7.9047V6.82683H5.77051V10.0279H7.9047V12.1621H5.77051V15.3632H7.9047V17.4973H5.77051V20.6984H7.9047V22.8326H5.77051V26.0337H7.9047V28.1678H5.77051V30.7875C5.77345 31.4021 6.27094 31.8996 6.88557 31.9025H29.1976C29.8122 31.8996 30.3097 31.4021 30.3127 30.7875ZM17.5081 26.5672H10.0388V19.0978H17.5081V26.5672ZM17.5081 13.7627H10.0388V6.29331H17.5081V13.7627ZM28.1786 26.5672H20.7092V19.0978H28.1786V26.5672ZM28.1786 13.7627H20.7092V6.29331H28.1786V13.7627Z" fill="#FFEB99"/>
<path d="M7.90461 4.69238H3.63647V6.82645H7.90461V4.69238Z" fill="#603913"/>
<path d="M7.90461 10.0278H3.63647V12.162H7.90461V10.0278Z" fill="#603913"/>
<path d="M7.90461 15.3628H3.63647V17.4969H7.90461V15.3628Z" fill="#603913"/>
<path d="M7.90461 20.6982H3.63647V22.8324H7.90461V20.6982Z" fill="#603913"/>
<path d="M7.90461 26.0337H3.63647V28.1679H7.90461V26.0337Z" fill="#603913"/>
<path d="M10.0388 13.7628H17.5082V6.29346H10.0388V13.7628ZM13.7734 7.36049V10.0281V7.36049Z" fill="#66A7F6"/>
<path d="M20.7092 13.7628H28.1786V6.29346H20.7092V13.7628Z" fill="#E03352"/>
<path d="M10.0388 26.567H17.5082V19.0977H10.0388V26.567ZM16.1663 20.4396L13.7734 22.8324L15.9075 24.9665L13.7734 22.8324L11.6394 24.9665L13.7734 22.8324L11.3806 20.4396L13.7734 22.8324L16.1663 20.4396Z" fill="#FFD422"/>
<path d="M20.7092 26.567H28.1786V19.0977H20.7092V26.567Z" fill="white"/>
<path d="M29.1977 0.424316H6.88567C5.97562 0.42521 5.23799 1.16284 5.2371 2.07289V4.15894H3.63654C3.34188 4.15894 3.10303 4.39791 3.10303 4.69258V6.82665C3.10303 7.12132 3.34188 7.36017 3.63654 7.36017H5.2371V9.49424H3.63654C3.34188 9.49424 3.10303 9.73321 3.10303 10.0278V12.1619C3.10303 12.4566 3.34188 12.6955 3.63654 12.6955H5.2371V14.8295H3.63654C3.34188 14.8295 3.10303 15.0684 3.10303 15.3631V17.4972C3.10303 17.7919 3.34188 18.0308 3.63654 18.0308H5.2371V20.1648H3.63654C3.34188 20.1648 3.10303 20.4037 3.10303 20.6984V22.8325C3.10303 23.1271 3.34188 23.3661 3.63654 23.3661H5.2371V25.5001H3.63654C3.34188 25.5001 3.10303 25.739 3.10303 26.0337V28.1677C3.10303 28.4624 3.34188 28.7014 3.63654 28.7014H5.2371V30.7874C5.23799 31.6975 5.97562 32.4351 6.88567 32.436H29.1977C30.1079 32.4351 30.8454 31.6975 30.8463 30.7874V2.07289C30.8454 1.16284 30.1079 0.42521 29.1977 0.424316V0.424316ZM4.17006 5.22597H7.37116V6.29313H4.17006V5.22597ZM4.17006 10.5613H7.37116V11.6283H4.17006V10.5613ZM4.17006 15.8966H7.37116V16.9636H4.17006V15.8966ZM4.17006 21.2319H7.37116V22.2989H4.17006V21.2319ZM4.17006 26.567H7.37116V27.6341H4.17006V26.567ZM29.7793 30.7873C29.779 31.1083 29.5188 31.3686 29.1977 31.3688H6.88567C6.56469 31.3686 6.30451 31.1083 6.30413 30.7873V28.7012H7.90468C8.19935 28.7012 8.43833 28.4623 8.43833 28.1676V26.0335C8.43833 25.7389 8.19935 25.5 7.90468 25.5H6.30413V23.3659H7.90468C8.19935 23.3659 8.43833 23.127 8.43833 22.8324V20.6982C8.43833 20.4036 8.19935 20.1647 7.90468 20.1647H6.30413V18.0306H7.90468C8.19935 18.0306 8.43833 17.7918 8.43833 17.4971V15.3631C8.43833 15.0684 8.19935 14.8295 7.90468 14.8295H6.30413V12.6953H7.90468C8.19935 12.6953 8.43833 12.4565 8.43833 12.1618V10.0278C8.43833 9.73309 8.19935 9.49424 7.90468 9.49424H6.30413V7.36017H7.90468C8.19935 7.36017 8.43833 7.12119 8.43833 6.82652V4.69245C8.43833 4.39779 8.19935 4.15894 7.90468 4.15894H6.30413V2.07289C6.30451 1.75191 6.56469 1.49161 6.88567 1.49135H29.1977C29.5188 1.49161 29.779 1.75191 29.7793 2.07289V30.7873Z" fill="#231F20"/>
<path d="M17.5083 5.75977H10.0389C9.74422 5.75977 9.50537 5.99862 9.50537 6.29328V13.7626C9.50537 14.0573 9.74422 14.2962 10.0389 14.2962H17.5083C17.8029 14.2962 18.0418 14.0573 18.0418 13.7626V6.29328C18.0418 5.99862 17.8029 5.75977 17.5083 5.75977ZM16.9747 13.2291H10.5724V6.8268H16.9747V13.2291Z" fill="#231F20"/>
<path d="M28.1787 5.75977H20.7093C20.4146 5.75977 20.1758 5.99862 20.1758 6.29328V13.7626C20.1758 14.0573 20.4146 14.2962 20.7093 14.2962H28.1787C28.4733 14.2962 28.7122 14.0573 28.7122 13.7626V6.29328C28.7122 5.99862 28.4733 5.75977 28.1787 5.75977ZM27.6451 13.2291H21.2428V6.8268H27.6451V13.2291Z" fill="#231F20"/>
<path d="M17.5083 18.564H10.0389C9.74422 18.564 9.50537 18.8029 9.50537 19.0976V26.5669C9.50537 26.8615 9.74422 27.1005 10.0389 27.1005H17.5083C17.8029 27.1005 18.0418 26.8615 18.0418 26.5669V19.0976C18.0418 18.8028 17.8029 18.564 17.5083 18.564ZM16.9747 26.0333H10.5724V19.631H16.9747V26.0333Z" fill="#231F20"/>
<path d="M28.1787 18.564H20.7093C20.4146 18.564 20.1758 18.8029 20.1758 19.0976V26.5669C20.1758 26.8615 20.4146 27.1005 20.7093 27.1005H28.1787C28.4733 27.1005 28.7122 26.8615 28.7122 26.5669V19.0976C28.7122 18.8028 28.4733 18.564 28.1787 18.564ZM27.6451 26.0333H21.2428V19.631H27.6451V26.0333Z" fill="#231F20"/>
<path d="M13.24 12.6952H14.3071V10.561H16.4413V9.49393H14.3071V7.35986H13.24V9.49393H11.106V10.561H13.24V12.6952Z" fill="#231F20"/>
<path d="M21.7764 9.49463H27.1117V10.5617H21.7764V9.49463Z" fill="#231F20"/>
<path d="M21.7764 21.2319H27.1117V22.299H21.7764V21.2319Z" fill="#231F20"/>
<path d="M21.7764 23.3657H27.1117V24.4328H21.7764V23.3657Z" fill="#231F20"/>
<path d="M11.2622 24.5894L12.0166 25.3437L13.7734 23.5869L15.5303 25.3437L16.2848 24.5894L14.5279 22.8325L16.5436 20.8169L15.7891 20.0625L13.7734 22.078L11.7578 20.0625L11.0034 20.8169L13.0191 22.8325L11.2622 24.5894Z" fill="#231F20"/>
</g>
<defs>
<clipPath id="clip0">
<rect width="32" height="32" fill="white" transform="translate(0.955566 0.457031)"/>
</clipPath>
</defs>
</svg>
