<svg width="33" height="33" viewBox="0 0 33 33" fill="none" xmlns="http://www.w3.org/2000/svg">
<g clip-path="url(#clip0)">
<path d="M16.4497 15.6881C16.4497 16.9622 16.0561 17.9658 14.7886 17.9481C13.8667 17.9353 13.078 17.4394 12.7333 16.6369C12.6921 16.541 12.5996 16.4796 12.4956 16.4799C12.4933 16.4799 12.4911 16.4799 12.4889 16.4799C10.9114 16.4799 9.97889 15.6103 9.97889 14.0249C9.97889 13.8377 9.99689 13.6548 10.031 13.4777C10.0516 13.3704 10.0036 13.2621 9.90895 13.2077C8.72958 12.5287 8.27539 11.6749 8.27539 10.211C8.27539 8.74699 8.72958 7.89305 9.90895 7.21424C10.0035 7.15986 10.0515 7.05155 10.031 6.94411C9.99689 6.76699 9.97889 6.58424 9.97889 6.39705C9.97889 4.81168 10.9114 3.94205 12.4889 3.94205H12.4956C12.5996 3.94236 12.6921 3.88099 12.7333 3.78493C13.0779 2.98261 13.8667 2.48674 14.7886 2.47386C16.0562 2.45618 16.4497 3.45968 16.4497 4.73386" fill="#FF9EB1"/>
<path d="M16.4497 4.73386C16.4497 3.45974 16.8433 2.45618 18.1108 2.47386C19.0327 2.48668 19.8215 2.98261 20.1661 3.78505C20.2073 3.88099 20.2998 3.94236 20.4038 3.94205H20.4105C21.988 3.94205 22.9205 4.81168 22.9205 6.39705C22.9205 6.58424 22.9025 6.76718 22.8685 6.94424C22.8478 7.05155 22.8958 7.15986 22.9905 7.21424C24.1698 7.89324 24.624 8.74705 24.624 10.211C24.624 11.675 24.1698 12.5289 22.9905 13.2077C22.8959 13.2621 22.8479 13.3704 22.8685 13.4779C22.9025 13.655 22.9205 13.8377 22.9205 14.0249C22.9205 15.6103 21.988 16.4799 20.4105 16.4799H20.4038C20.2998 16.4796 20.2073 16.541 20.1661 16.6371C19.8215 17.4394 19.0327 17.9352 18.1108 17.9481C16.8431 17.9657 16.4497 16.9622 16.4497 15.6881" fill="#FF7D97"/>
<path d="M27.0151 14.4667V9.75191C27.0151 9.05116 27.5832 8.48297 28.2841 8.48297C28.2907 8.48297 28.3273 8.48372 28.3282 8.48372C29.0086 8.50697 29.553 9.06578 29.553 9.75191V15.2" fill="#FFDCD5"/>
<path d="M5.88407 14.4663V9.75145C5.88407 9.0507 5.316 8.48251 4.61513 8.48251C4.6085 8.48251 4.57188 8.48326 4.571 8.48326C3.89063 8.50651 3.34619 9.06533 3.34619 9.75145V15.1996" fill="#FFDCD5"/>
<path d="M8.34067 21.2522L3.93567 16.6441C3.61236 16.3158 3.48423 15.8683 3.55017 15.4454C3.59398 15.1647 3.72323 14.8949 3.93786 14.6781C3.94211 14.6738 4.05004 14.5763 4.05042 14.5759C4.60348 14.1256 5.41886 14.1618 5.92948 14.6801L10.4277 19.1124C11.5845 20.2523 12.2358 21.8084 12.2358 23.4325V30.8169H7.84254V25.5558L2.73642 21.4371C1.71636 20.4996 1.10229 19.1906 1.07586 17.8054C1.07498 17.7598 1.07461 17.7138 1.07473 17.6675C1.08061 15.5524 1.08973 8.66963 1.08973 7.17438C1.08973 6.55195 1.74886 6.10076 2.40017 6.13138C3.08267 6.16351 3.60779 6.75138 3.60779 7.43476V15.1997" fill="#FFDCD5"/>
<path d="M26.7434 18.9531L28.9637 16.6441C29.287 16.3158 29.4151 15.8683 29.3492 15.4454C29.3054 15.1647 29.1761 14.8949 28.9615 14.6781C28.9573 14.6738 28.8493 14.5763 28.8489 14.5759C28.2959 14.1256 27.4805 14.1618 26.9699 14.6801L22.4717 19.1124C21.3149 20.2523 20.6636 21.8084 20.6636 23.4325V30.8169H25.0568V25.5558L30.1629 21.4371C31.183 20.4996 31.7971 19.1906 31.8235 17.8054C31.8244 17.7598 31.8247 17.7138 31.8246 17.6675C31.8187 15.5524 31.8096 8.66963 31.8096 7.17438C31.8096 6.55195 31.1504 6.10076 30.4992 6.13138C29.8166 6.16351 29.2916 6.75138 29.2916 7.43476V15.1997" fill="#FFDCD5"/>
<path d="M20.6366 17.0993C22.4375 17.0103 23.5456 15.8495 23.5456 14.0248C23.5456 13.8884 23.5377 13.7517 23.5219 13.6162C24.7297 12.8447 25.2491 11.8118 25.2491 10.2108C25.2491 8.61022 24.7296 7.57728 23.5219 6.80547C23.5377 6.66991 23.5456 6.53322 23.5456 6.39685C23.5456 4.57216 22.4375 3.41128 20.6366 3.32235C20.1543 2.42235 19.2108 1.86385 18.1196 1.84872C17.4834 1.84035 16.9625 2.03172 16.5698 2.41897C16.5281 2.46016 16.4881 2.50347 16.4498 2.54878C16.4115 2.50347 16.3715 2.46016 16.3297 2.41897C15.937 2.03172 15.4151 1.84022 14.7799 1.84872C13.6888 1.86391 12.7455 2.42222 12.2629 3.32235C10.462 3.41128 9.35389 4.57216 9.35389 6.39685C9.35389 6.53322 9.36189 6.66997 9.37764 6.80547C8.16983 7.57697 7.65039 8.60985 7.65039 10.2108C7.65039 11.8114 8.16989 12.8443 9.37764 13.6162C9.36183 13.7517 9.35389 13.8884 9.35389 14.0248C9.35389 15.8495 10.462 17.0103 12.263 17.0993C12.7453 17.9993 13.6887 18.5578 14.7799 18.5729C14.794 18.5731 14.8079 18.5732 14.8218 18.5732C15.4385 18.5732 15.9457 18.3814 16.3297 18.0027C16.3715 17.9615 16.4115 17.9182 16.4498 17.8728C16.4881 17.9182 16.528 17.9615 16.5698 18.0027C16.9538 18.3814 17.4609 18.5732 18.0776 18.5732C18.0916 18.5732 18.1056 18.5731 18.1196 18.5729C19.2108 18.5577 20.154 17.9994 20.6366 17.0993ZM15.8248 15.688C15.8248 16.3795 15.6959 16.8722 15.4521 17.1127C15.3044 17.2583 15.0896 17.3273 14.7973 17.323C14.1476 17.314 13.595 16.9832 13.3373 16.4549C13.425 16.291 13.5563 16.1545 13.7207 16.0594C13.9517 15.9258 14.2207 15.8903 14.478 15.9595C14.8112 16.0491 15.1542 15.8513 15.2437 15.518C15.3333 15.1846 15.1356 14.8418 14.8022 14.7522C14.2218 14.5964 13.6155 14.6763 13.095 14.9773C12.732 15.1872 12.441 15.487 12.2448 15.8464C11.1557 15.7692 10.604 15.1573 10.604 14.0248C10.604 13.8808 10.6177 13.7365 10.6448 13.5954C10.7158 13.226 10.5452 12.8523 10.2209 12.6659C9.24602 12.1047 8.90052 11.4622 8.90052 10.2108C8.90052 8.95935 9.24602 8.31685 10.2205 7.75597C10.5452 7.56935 10.7157 7.19578 10.6448 6.82578C10.6176 6.68503 10.604 6.54072 10.604 6.39685C10.604 5.18253 11.2381 4.56685 12.489 4.56685H12.4965C12.5147 4.56685 12.5329 4.56622 12.551 4.56516C12.871 4.69978 13.0513 5.0566 12.959 5.40391C12.8703 5.73747 13.0688 6.07978 13.4023 6.16853C13.4561 6.18285 13.5101 6.18966 13.5633 6.18966C13.8397 6.18966 14.0925 6.00491 14.167 5.7251C14.3716 4.95572 14.088 4.16853 13.508 3.69635C13.8014 3.32772 14.267 3.10597 14.7974 3.0986C15.0901 3.09441 15.3044 3.16335 15.4521 3.30897C15.696 3.54941 15.8248 4.0421 15.8248 4.73372V15.688ZM19.9407 15.0178C20.0294 14.6842 19.8309 14.3419 19.4973 14.2532C19.1638 14.1644 18.8214 14.363 18.7327 14.6965C18.5281 15.466 18.8117 16.2531 19.3917 16.7253C19.0983 17.0939 18.6326 17.3157 18.1023 17.323C17.8095 17.328 17.5952 17.2583 17.4475 17.1127C17.2037 16.8722 17.0748 16.3795 17.0748 15.688V4.73372C17.0748 4.04216 17.2038 3.54947 17.4476 3.30903C17.5953 3.16341 17.8095 3.09441 18.1023 3.09866C18.752 3.10766 19.3046 3.43847 19.5623 3.96678C19.4747 4.13072 19.3433 4.26722 19.179 4.36228C18.948 4.49585 18.679 4.53135 18.4216 4.46222C18.0885 4.37266 17.7455 4.57035 17.656 4.90372C17.5664 5.23703 17.7641 5.57991 18.0975 5.66941C18.2913 5.72147 18.488 5.74722 18.6835 5.74722C19.0733 5.74722 19.458 5.64478 19.8046 5.44435C20.1676 5.23441 20.4587 4.93466 20.6548 4.57522C21.744 4.65247 22.2957 5.26428 22.2957 6.39685C22.2957 6.54085 22.282 6.68516 22.2548 6.82622C22.1839 7.19566 22.3545 7.56928 22.6788 7.75572C23.6536 8.31697 23.9991 8.95941 23.9991 10.2108C23.9991 11.4623 23.6536 12.1048 22.6791 12.6657C22.3545 12.8523 22.184 13.2258 22.2548 13.5958C22.282 13.7366 22.2956 13.8809 22.2956 14.0248C22.2956 15.2391 21.6615 15.8548 20.4106 15.8548H20.4058C20.3865 15.8547 20.3675 15.8553 20.3485 15.8564C20.0286 15.7218 19.8484 15.365 19.9407 15.0178Z" fill="black"/>
<path d="M12.9045 8.93146C12.1652 8.93146 11.5224 9.35327 11.2271 10.0323C10.9334 10.7075 11.0621 11.4606 11.563 11.9981C11.5871 12.024 11.6117 12.0495 11.6369 12.0746C11.7589 12.1964 11.9187 12.2573 12.0785 12.2573C12.2386 12.2573 12.3987 12.1961 12.5208 12.0738C12.7647 11.8296 12.7644 11.4338 12.5201 11.19C12.5055 11.1754 12.4912 11.1605 12.4774 11.1457C12.2424 10.8936 12.3384 10.6113 12.3734 10.5308C12.409 10.4489 12.5527 10.1815 12.9045 10.1815C13.2497 10.1815 13.5295 9.90165 13.5295 9.55646C13.5295 9.21127 13.2497 8.93146 12.9045 8.93146Z" fill="black"/>
<path d="M20.3791 11.19C20.1348 11.4339 20.1345 11.8296 20.3784 12.0739C20.5005 12.1962 20.6606 12.2573 20.8207 12.2573C20.9805 12.2573 21.1403 12.1964 21.2623 12.0746C21.2874 12.0495 21.3121 12.0239 21.3363 11.998C21.8371 11.4607 21.9657 10.7075 21.672 10.0324C21.3767 9.35336 20.7339 8.93155 19.9946 8.93155C19.6494 8.93155 19.3696 9.21136 19.3696 9.55655C19.3696 9.90174 19.6494 10.1815 19.9946 10.1815C20.3464 10.1815 20.4901 10.449 20.5258 10.5309C20.5608 10.6114 20.6568 10.8937 20.4219 11.1456C20.408 11.1606 20.3937 11.1754 20.3791 11.19Z" fill="black"/>
<path d="M10.8663 18.6675L6.50923 14.3742V9.75174C6.50923 8.70743 5.65961 7.8578 4.61529 7.8578C4.60542 7.8578 4.55092 7.85893 4.54979 7.85893C4.44298 7.86261 4.33692 7.87549 4.23286 7.89705V7.43499C4.23286 6.40161 3.44079 5.55486 2.42961 5.5073C1.89198 5.48174 1.34448 5.68274 0.965543 6.0443C0.642543 6.3523 0.46473 6.75374 0.46473 7.17455C0.46473 8.64868 0.45573 15.5162 0.44973 17.6661C0.449605 17.7168 0.44998 17.7672 0.45098 17.8175C0.48023 19.3493 1.15911 20.8364 2.31348 21.8974C2.32336 21.9066 2.33354 21.9153 2.34404 21.9237L7.21754 25.8548V30.8171C7.21754 31.1622 7.49736 31.4421 7.84254 31.4421H12.2358C12.581 31.4421 12.8608 31.1622 12.8608 30.8171V23.4327C12.8608 21.6532 12.1339 19.9164 10.8663 18.6675ZM4.58904 9.1083L4.61523 9.1078C4.97029 9.1078 5.25917 9.39668 5.25917 9.75174V13.6615C4.91761 13.6054 4.56373 13.6379 4.23273 13.7609V9.23355C4.33654 9.15661 4.45886 9.11349 4.58904 9.1083ZM11.6108 30.1921H8.46754V25.556C8.46754 25.367 8.38204 25.1882 8.23492 25.0695L3.14504 20.9639C2.24954 20.1337 1.72336 18.9794 1.70073 17.7939C1.69998 17.7526 1.69961 17.7111 1.69973 17.6694C1.70567 15.519 1.71473 8.64911 1.71473 7.17455C1.71473 7.09655 1.75292 7.02061 1.82829 6.94868C1.96079 6.8223 2.17348 6.74699 2.37079 6.75586C2.70823 6.77174 2.98279 7.07636 2.98279 7.43493V15.1172C2.96173 15.1931 2.94498 15.2706 2.93267 15.3494C2.83461 15.9786 3.04167 16.6248 3.48679 17.0791L7.88898 21.6843C8.12748 21.9338 8.52311 21.9427 8.77267 21.7042C9.02217 21.4657 9.03111 21.07 8.79254 20.8205L4.38754 16.2124C4.38542 16.2101 4.38323 16.2079 4.38104 16.2057C4.20723 16.0292 4.12948 15.7873 4.16773 15.542C4.19223 15.3852 4.26304 15.2421 4.37373 15.1265C4.39373 15.1082 4.43467 15.0712 4.45561 15.0523C4.76573 14.8086 5.20554 14.8361 5.48417 15.1189C5.48636 15.1211 5.48854 15.1232 5.49073 15.1254L9.98892 19.5577C11.0196 20.5733 11.6107 21.9856 11.6107 23.4326V30.1921H11.6108Z" fill="black"/>
<path d="M32.4347 7.1743C32.4347 6.75348 32.2569 6.35205 31.9339 6.04398C31.555 5.68242 31.008 5.48192 30.4699 5.50698C29.4587 5.55455 28.6666 6.4013 28.6666 7.43467V7.89667C28.5627 7.87517 28.457 7.86229 28.3505 7.85867C28.3492 7.85867 28.2941 7.85748 28.2841 7.85748C27.2397 7.85748 26.3901 8.70711 26.3901 9.75142V14.3739L22.0331 18.6672C20.7656 19.9161 20.0386 21.6529 20.0386 23.4324V30.8168C20.0386 31.162 20.3184 31.4418 20.6636 31.4418H25.0568C25.402 31.4418 25.6818 31.162 25.6818 30.8168V25.8545L30.5553 21.9235C30.5658 21.915 30.576 21.9063 30.5859 21.8972C31.7403 20.8361 32.4192 19.349 32.4484 17.817C32.4493 17.7669 32.4497 17.7165 32.4496 17.6657C32.4437 15.516 32.4347 8.64842 32.4347 7.1743ZM28.2801 9.10748L28.3106 9.10804C28.4407 9.11323 28.563 9.15636 28.6666 9.23329V13.7604C28.3358 13.6375 27.9819 13.605 27.6402 13.6612V9.75142C27.6402 9.39642 27.9291 9.10754 28.2801 9.10748ZM31.1987 17.7934C31.1761 18.9792 30.6499 20.1335 29.7544 20.9637L24.6645 25.0693C24.5174 25.1879 24.4318 25.3668 24.4318 25.5558V30.1919H21.2886V23.4325C21.2886 21.9855 21.8797 20.5732 22.9104 19.5576L27.4085 15.1253C27.4108 15.1231 27.413 15.1209 27.4151 15.1187C27.6939 14.8357 28.1343 14.8083 28.4434 15.0519C28.4643 15.0707 28.5057 15.1082 28.5258 15.1265C28.636 15.2414 28.7071 15.3846 28.7315 15.5417C28.7698 15.7871 28.6921 16.029 28.5182 16.2055C28.5165 16.2073 28.5147 16.2091 28.513 16.2109L26.2928 18.5199C26.0535 18.7687 26.0613 19.1644 26.3101 19.4037C26.5588 19.6429 26.9545 19.6352 27.1938 19.3864L29.412 17.0795C29.8575 16.6251 30.0647 15.9787 29.9666 15.3491C29.9543 15.2703 29.9375 15.1928 29.9164 15.117V7.43467C29.9164 7.07611 30.191 6.77148 30.5285 6.75561C30.726 6.74673 30.9385 6.82204 31.071 6.94842C31.1463 7.02029 31.1845 7.0963 31.1845 7.1743C31.1845 8.64892 31.1936 15.5187 31.1995 17.6691C31.1998 17.7109 31.1995 17.7524 31.1987 17.7934Z" fill="black"/>
<path d="M25.3577 20.7626C25.2553 20.5129 24.9934 20.3549 24.7247 20.3792C24.4668 20.4025 24.2439 20.5892 24.1774 20.8397C24.1112 21.0888 24.2076 21.359 24.4169 21.5096C24.6284 21.6617 24.9221 21.664 25.1361 21.5154C25.3749 21.3497 25.4696 21.0313 25.3577 20.7626Z" fill="black"/>
</g>
<defs>
<clipPath id="clip0">
<rect width="32" height="32" fill="white" transform="translate(0.449707 0.64502)"/>
</clipPath>
</defs>
</svg>
