<svg width="28" height="38" viewBox="0 0 28 38" fill="none" xmlns="http://www.w3.org/2000/svg">
<g clip-path="url(#clip0)">
<path d="M1.54639 4.53809H26.2964V36.0381H1.54639V4.53809Z" fill="url(#paint0_linear)"/>
<path d="M26.2964 4.53809H1.54639V29.2881L8.29639 36.0381H26.2964V4.53809Z" fill="url(#paint1_linear)"/>
<path d="M8.29639 29.2881H1.54639L8.29639 36.0381V29.2881Z" fill="url(#paint2_linear)"/>
<path d="M1.54639 4.53809H26.2964V9.60059H1.54639V4.53809Z" fill="url(#paint3_linear)"/>
<path d="M26.2964 3.69434H20.9526V2.28809C20.9526 2.06431 20.8637 1.8497 20.7055 1.69146C20.5473 1.53323 20.3327 1.44434 20.1089 1.44434C19.8851 1.44434 19.6705 1.53323 19.5123 1.69146C19.354 1.8497 19.2651 2.06431 19.2651 2.28809V3.69434H14.7651V2.28809C14.7651 2.06431 14.6762 1.8497 14.518 1.69146C14.3598 1.53323 14.1452 1.44434 13.9214 1.44434C13.6976 1.44434 13.483 1.53323 13.3248 1.69146C13.1665 1.8497 13.0776 2.06431 13.0776 2.28809V3.69434H8.57764V2.28809C8.57764 2.06431 8.48874 1.8497 8.33051 1.69146C8.17227 1.53323 7.95766 1.44434 7.73389 1.44434C7.51011 1.44434 7.2955 1.53323 7.13727 1.69146C6.97903 1.8497 6.89014 2.06431 6.89014 2.28809V3.69434H1.54639C1.32261 3.69434 1.108 3.78323 0.949765 3.94146C0.791532 4.0997 0.702637 4.31431 0.702637 4.53809V36.0381C0.702637 36.2619 0.791532 36.4765 0.949765 36.6347C1.108 36.7929 1.32261 36.8818 1.54639 36.8818H26.2964C26.5202 36.8818 26.7348 36.7929 26.893 36.6347C27.0512 36.4765 27.1401 36.2619 27.1401 36.0381V4.53809C27.1401 4.31431 27.0512 4.0997 26.893 3.94146C26.7348 3.78323 26.5202 3.69434 26.2964 3.69434ZM2.39014 5.38184H6.89014V6.22559C6.89014 6.44936 6.97903 6.66397 7.13727 6.82221C7.2955 6.98044 7.51011 7.06934 7.73389 7.06934C7.95766 7.06934 8.17227 6.98044 8.33051 6.82221C8.48874 6.66397 8.57764 6.44936 8.57764 6.22559V5.38184H13.0776V6.22559C13.0776 6.44936 13.1665 6.66397 13.3248 6.82221C13.483 6.98044 13.6976 7.06934 13.9214 7.06934C14.1452 7.06934 14.3598 6.98044 14.518 6.82221C14.6762 6.66397 14.7651 6.44936 14.7651 6.22559V5.38184H19.2651V6.22559C19.2651 6.44936 19.354 6.66397 19.5123 6.82221C19.6705 6.98044 19.8851 7.06934 20.1089 7.06934C20.3327 7.06934 20.5473 6.98044 20.7055 6.82221C20.8637 6.66397 20.9526 6.44936 20.9526 6.22559V5.38184H25.4526V8.75684H2.39014V5.38184ZM7.45264 34.0011L3.58341 30.1318H7.45264V34.0011ZM2.39014 31.3251L6.25936 35.1943H2.39014V31.3251ZM9.14014 35.1943V29.2881C9.14014 29.0643 9.05124 28.8497 8.89301 28.6915C8.73477 28.5332 8.52016 28.4443 8.29639 28.4443H2.39014V10.4443H25.4526V35.1943H9.14014Z" fill="black"/>
<path d="M22.9214 13.2568H4.92139C4.69761 13.2568 4.483 13.3457 4.32477 13.504C4.16653 13.6622 4.07764 13.8768 4.07764 14.1006C4.07764 14.3244 4.16653 14.539 4.32477 14.6972C4.483 14.8554 4.69761 14.9443 4.92139 14.9443H22.9214C23.1452 14.9443 23.3598 14.8554 23.518 14.6972C23.6762 14.539 23.7651 14.3244 23.7651 14.1006C23.7651 13.8768 23.6762 13.6622 23.518 13.504C23.3598 13.3457 23.1452 13.2568 22.9214 13.2568Z" fill="black"/>
<path d="M4.92139 19.4443H9.42139C9.64516 19.4443 9.85977 19.3554 10.018 19.1972C10.1762 19.039 10.2651 18.8244 10.2651 18.6006C10.2651 18.3768 10.1762 18.1622 10.018 18.004C9.85977 17.8457 9.64516 17.7568 9.42139 17.7568H4.92139C4.69761 17.7568 4.483 17.8457 4.32477 18.004C4.16653 18.1622 4.07764 18.3768 4.07764 18.6006C4.07764 18.8244 4.16653 19.039 4.32477 19.1972C4.483 19.3554 4.69761 19.4443 4.92139 19.4443Z" fill="black"/>
<path d="M22.9214 17.7568H13.3589C13.1351 17.7568 12.9205 17.8457 12.7623 18.004C12.604 18.1622 12.5151 18.3768 12.5151 18.6006C12.5151 18.8244 12.604 19.039 12.7623 19.1972C12.9205 19.3554 13.1351 19.4443 13.3589 19.4443H22.9214C23.1452 19.4443 23.3598 19.3554 23.518 19.1972C23.6762 19.039 23.7651 18.8244 23.7651 18.6006C23.7651 18.3768 23.6762 18.1622 23.518 18.004C23.3598 17.8457 23.1452 17.7568 22.9214 17.7568Z" fill="black"/>
<path d="M15.8901 23.1006C15.8901 22.8768 15.8012 22.6622 15.643 22.504C15.4848 22.3457 15.2702 22.2568 15.0464 22.2568H4.92139C4.69761 22.2568 4.483 22.3457 4.32477 22.504C4.16653 22.6622 4.07764 22.8768 4.07764 23.1006C4.07764 23.3244 4.16653 23.539 4.32477 23.6972C4.483 23.8554 4.69761 23.9443 4.92139 23.9443H15.0464C15.2702 23.9443 15.4848 23.8554 15.643 23.6972C15.8012 23.539 15.8901 23.3244 15.8901 23.1006Z" fill="black"/>
<path d="M22.9214 22.2568H18.4214C18.1976 22.2568 17.983 22.3457 17.8248 22.504C17.6665 22.6622 17.5776 22.8768 17.5776 23.1006C17.5776 23.3244 17.6665 23.539 17.8248 23.6972C17.983 23.8554 18.1976 23.9443 18.4214 23.9443H22.9214C23.1452 23.9443 23.3598 23.8554 23.518 23.6972C23.6762 23.539 23.7651 23.3244 23.7651 23.1006C23.7651 22.8768 23.6762 22.6622 23.518 22.504C23.3598 22.3457 23.1452 22.2568 22.9214 22.2568Z" fill="black"/>
<path d="M22.9214 26.7568H11.6714C11.4476 26.7568 11.233 26.8457 11.0748 27.004C10.9165 27.1622 10.8276 27.3768 10.8276 27.6006C10.8276 27.8244 10.9165 28.039 11.0748 28.1972C11.233 28.3554 11.4476 28.4443 11.6714 28.4443H22.9214C23.1452 28.4443 23.3598 28.3554 23.518 28.1972C23.6762 28.039 23.7651 27.8244 23.7651 27.6006C23.7651 27.3768 23.6762 27.1622 23.518 27.004C23.3598 26.8457 23.1452 26.7568 22.9214 26.7568Z" fill="black"/>
</g>
<defs>
<linearGradient id="paint0_linear" x1="-0.141113" y1="34.3506" x2="27.9839" y2="6.22559" gradientUnits="userSpaceOnUse">
<stop offset="0.015" stop-color="#CACAD5"/>
<stop offset="1" stop-color="#DCDCE3"/>
</linearGradient>
<linearGradient id="paint1_linear" x1="171.925" y1="14907.7" x2="12448.4" y2="5261.93" gradientUnits="userSpaceOnUse">
<stop offset="0.011" stop-color="#DCDCE3"/>
<stop offset="1" stop-color="#EDEDF1"/>
</linearGradient>
<linearGradient id="paint2_linear" x1="4.92139" y1="32.6631" x2="32.4839" y2="5.10059" gradientUnits="userSpaceOnUse">
<stop offset="0.011" stop-color="#CACAD5"/>
<stop offset="1" stop-color="#EDEDF1"/>
</linearGradient>
<linearGradient id="paint3_linear" x1="6.46826" y1="14.5225" x2="21.3745" y2="-0.383789" gradientUnits="userSpaceOnUse">
<stop stop-color="#D46669"/>
<stop offset="1" stop-color="#DD888A"/>
</linearGradient>
<clipPath id="clip0">
<rect width="27" height="37" fill="white" transform="translate(0.421387 0.763672)"/>
</clipPath>
</defs>
</svg>
