<svg width="37" height="37" viewBox="0 0 37 37" fill="none" xmlns="http://www.w3.org/2000/svg">
<g clip-path="url(#clip0)">
<path d="M18.9214 11.4887V27.3793C26.1892 24.2144 33.158 31.599 34.6714 33.4262V16.5512C34.1396 14.1937 25.6955 8.11978 18.9214 11.4887Z" fill="url(#paint0_linear)"/>
<path d="M18.9214 11.4891V27.3798C21.7339 22.7391 27.9475 23.5978 31.2964 26.2548V10.3641C28.5808 7.72904 21.7339 6.98914 18.9214 11.4891Z" fill="url(#paint1_linear)"/>
<path d="M18.9214 11.4887V27.3793C11.6535 24.2144 4.68479 31.599 3.17139 33.4262V16.5512C3.70316 14.1937 12.1473 8.11978 18.9214 11.4887Z" fill="url(#paint2_linear)"/>
<path d="M18.9214 11.4891V27.3798C16.1089 22.7391 9.8953 23.5978 6.54639 26.2548V10.3641C9.26193 7.72904 16.1089 6.98914 18.9214 11.4891Z" fill="url(#paint3_linear)"/>
<path d="M34.6714 33.4262L32.9839 35.6059C32.9839 35.6059 25.1089 26.7465 18.9214 30.6841V27.3794C26.1892 24.2144 33.158 31.5991 34.6714 33.4262Z" fill="url(#paint4_linear)"/>
<path d="M3.17139 33.4262L4.85889 35.6059C4.85889 35.6059 12.7339 26.7465 18.9214 30.6841V27.3794C11.6535 24.2144 4.68479 31.5991 3.17139 33.4262Z" fill="url(#paint5_linear)"/>
<path d="M21.7345 21.4868C21.8609 21.4867 21.9856 21.4581 22.0995 21.4032C23.8069 20.5829 26.0287 20.5637 28.1962 21.3506C28.4051 21.4215 28.6335 21.4076 28.8324 21.3121C29.0312 21.2165 29.1847 21.0469 29.2601 20.8396C29.3354 20.6322 29.3265 20.4036 29.2353 20.2027C29.1441 20.0018 28.9778 19.8447 28.7721 19.7649C26.181 18.8241 23.4826 18.867 21.3688 19.8825C20.5618 20.2652 20.8565 21.4956 21.7345 21.4868Z" fill="black"/>
<path d="M21.7345 18.1118C21.8609 18.1117 21.9857 18.0832 22.0995 18.0282C23.8069 17.2079 26.0288 17.1887 28.1962 17.9757C28.4052 18.0465 28.6335 18.0326 28.8324 17.9371C29.0313 17.8416 29.1848 17.6719 29.2601 17.4646C29.3354 17.2572 29.3265 17.0286 29.2353 16.8277C29.1441 16.6269 28.9778 16.4697 28.7722 16.3899C26.181 15.4491 23.4826 15.492 21.3689 16.5075C21.1964 16.5903 21.0571 16.7292 20.974 16.9016C20.8908 17.0739 20.8687 17.2693 20.9113 17.4559C20.9538 17.6424 21.0585 17.809 21.2082 17.9282C21.3578 18.0474 21.5435 18.1122 21.7349 18.112L21.7345 18.1118Z" fill="black"/>
<path d="M21.7345 14.7368C21.8609 14.7367 21.9856 14.7082 22.0995 14.6532C23.8069 13.8329 26.0287 13.8138 28.1962 14.6007C28.4051 14.6715 28.6335 14.6576 28.8324 14.5621C29.0312 14.4666 29.1847 14.2969 29.2601 14.0896C29.3354 13.8822 29.3265 13.6536 29.2353 13.4527C29.1441 13.2518 28.9778 13.0947 28.7721 13.0149C26.181 12.0741 23.4826 12.117 21.3688 13.1325C20.5618 13.5152 20.8565 14.7456 21.7345 14.7368Z" fill="black"/>
<path d="M15.7431 21.4026C16.753 21.8596 17.4676 20.3914 16.4738 19.8815C14.3601 18.866 11.6617 18.8232 9.07052 19.7639C8.86128 19.8411 8.69111 19.998 8.59722 20.2003C8.50333 20.4026 8.49334 20.6338 8.56945 20.8434C8.64556 21.0531 8.80156 21.224 9.00337 21.319C9.20517 21.4139 9.43635 21.4251 9.64638 21.3501C11.814 20.5634 14.036 20.5826 15.7431 21.4026Z" fill="black"/>
<path d="M9.64711 17.9756C11.8144 17.1887 14.0364 17.2078 15.7438 18.0281C16.7537 18.4851 17.4683 17.0169 16.4745 16.507C14.3609 15.4915 11.6624 15.4487 9.07125 16.3894C8.86201 16.4666 8.69185 16.6235 8.59795 16.8258C8.50406 17.028 8.49407 17.2593 8.57018 17.4689C8.64629 17.6786 8.8023 17.8495 9.0041 17.9445C9.2059 18.0394 9.43708 18.0506 9.64711 17.9756Z" fill="black"/>
<path d="M9.64711 14.6006C11.8144 13.8137 14.0364 13.8328 15.7438 14.6531C16.7537 15.1101 17.4683 13.6419 16.4745 13.132C14.3609 12.1165 11.6624 12.0737 9.07125 13.0144C8.86201 13.0916 8.69185 13.2485 8.59795 13.4508C8.50406 13.653 8.49407 13.8843 8.57018 14.0939C8.64629 14.3036 8.8023 14.4745 9.0041 14.5695C9.2059 14.6644 9.43708 14.6756 9.64711 14.6006Z" fill="black"/>
<path d="M35.3993 33.8515C35.4747 33.7224 35.5147 33.5757 35.5151 33.4261V16.5511C35.5151 16.4887 35.5082 16.4263 35.4945 16.3654C35.2101 15.1055 33.6401 13.6484 32.1401 12.6117V10.3636C32.1401 10.2507 32.1174 10.1389 32.0734 10.0349C32.0294 9.93088 31.965 9.83676 31.8839 9.75811C30.1173 8.04375 26.9877 7.12786 24.0964 7.47922C21.98 7.73642 20.1821 8.64802 18.9214 10.0813C17.6606 8.64816 15.8631 7.73635 13.7464 7.47922C10.8552 7.12765 7.72553 8.04368 5.95893 9.75811C5.87785 9.83675 5.81339 9.93087 5.76937 10.0349C5.72534 10.1389 5.70265 10.2507 5.70264 10.3636V12.6117C4.20266 13.6484 2.63265 15.1055 2.34831 16.3654C2.33458 16.4263 2.32765 16.4887 2.32764 16.5511V33.4261C2.32857 33.613 2.3906 33.7944 2.50426 33.9427L4.19176 36.1223C4.26822 36.2195 4.36496 36.2988 4.47523 36.3547C4.58549 36.4105 4.70663 36.4417 4.83018 36.4459C4.95373 36.4502 5.07671 36.4274 5.19054 36.3792C5.30438 36.3309 5.40631 36.2585 5.48924 36.1668C5.56335 36.0836 12.962 27.8916 18.4684 31.3958C18.6044 31.4804 18.7613 31.5253 18.9214 31.5253C19.0815 31.5253 19.2384 31.4804 19.3743 31.3958C24.8811 27.8916 32.2795 36.0836 32.3533 36.1664C32.4361 36.2582 32.538 36.3308 32.6519 36.3791C32.7657 36.4275 32.8888 36.4503 33.0124 36.4461C33.136 36.442 33.2572 36.4108 33.3675 36.3549C33.4778 36.2989 33.5746 36.2196 33.651 36.1223L35.3385 33.9427C35.3605 33.9135 35.3808 33.883 35.3993 33.8515ZM24.2999 9.15427C26.5367 8.88237 29.0046 9.52868 30.4526 10.7386V24.6793C27.1146 22.8209 22.6761 22.5617 19.7651 25.078V11.7392C21.0086 9.91308 22.9049 9.32386 24.2999 9.15427ZM7.39014 10.7388C8.83801 9.5289 11.3055 8.88251 13.5428 9.15441C14.9378 9.32386 16.8342 9.91308 18.078 11.7392V25.0779C15.1704 22.5455 10.652 22.8441 7.39014 24.6793V10.7388ZM4.01514 31.2803V16.6652C4.14268 16.2941 4.67298 15.5692 5.70264 14.7197V26.2543C5.70265 26.4129 5.74738 26.5683 5.83171 26.7027C5.91603 26.8371 6.03652 26.9449 6.17936 27.0139C6.3222 27.0829 6.4816 27.1103 6.63927 27.0928C6.79695 27.0754 6.9465 27.0138 7.07078 26.9152C9.03468 25.3571 11.8067 24.6201 14.1332 25.0379C14.8703 25.1634 15.578 25.4234 16.221 25.8051C10.9893 25.2783 6.33981 28.9951 4.01514 31.2803ZM9.12095 30.9539C7.26069 32.1225 5.75685 33.4946 4.92779 34.3167L4.262 33.4565C5.99711 31.5309 11.9036 25.7069 18.0776 27.9506V29.3157C15.4958 28.3208 12.431 28.8744 9.12095 30.9539ZM32.9147 34.3167C32.0856 33.4946 30.5818 32.1225 28.7215 30.9539C26.4771 29.5439 24.3459 28.8355 22.4012 28.8355C21.5002 28.831 20.6061 28.9938 19.7645 29.3157V27.9505C25.9389 25.7069 31.845 31.5309 33.5801 33.4565L32.9147 34.3167ZM21.6218 25.8051C22.2648 25.4234 22.9725 25.1633 23.7097 25.0379C26.0362 24.6202 28.8082 25.3572 30.7721 26.9152C30.8964 27.0138 31.046 27.0753 31.2036 27.0927C31.3613 27.1102 31.5206 27.0828 31.6634 27.0138C31.8063 26.9448 31.9267 26.837 32.011 26.7026C32.0954 26.5683 32.1401 26.4129 32.1401 26.2543V14.7197C33.1698 15.5692 33.7001 16.2941 33.8276 16.6652V31.2803C31.503 28.9951 26.8536 25.2783 21.6218 25.8051Z" fill="black"/>
<path d="M16.7354 5.57431C16.6551 5.65224 16.5911 5.74536 16.5471 5.84827C16.5032 5.95117 16.4801 6.0618 16.4793 6.17371C16.4785 6.28561 16.4999 6.39656 16.5424 6.5001C16.5849 6.60363 16.6475 6.69769 16.7267 6.77678C16.8058 6.85587 16.9 6.91842 17.0035 6.96079C17.1071 7.00316 17.2181 7.02451 17.33 7.02358C17.4419 7.02265 17.5525 6.99947 17.6554 6.95539C17.7582 6.91131 17.8513 6.8472 17.9291 6.76681C18.0594 6.63635 18.214 6.53285 18.3843 6.46223C18.5545 6.39162 18.7371 6.35527 18.9214 6.35527C19.1057 6.35527 19.2882 6.39162 19.4585 6.46223C19.6287 6.53285 19.7834 6.63635 19.9136 6.76681C19.9915 6.8472 20.0845 6.91131 20.1874 6.95539C20.2903 6.99947 20.4009 7.02265 20.5128 7.02358C20.6247 7.02451 20.7356 7.00316 20.8392 6.96079C20.9428 6.91842 21.0369 6.85587 21.1161 6.77678C21.1953 6.69769 21.2579 6.60363 21.3004 6.5001C21.3429 6.39656 21.3643 6.28561 21.3635 6.17371C21.3627 6.0618 21.3396 5.95117 21.2956 5.84827C21.2516 5.74536 21.1876 5.65224 21.1073 5.57431C20.8204 5.28699 20.4797 5.05905 20.1046 4.90353C19.7295 4.74802 19.3274 4.66797 18.9214 4.66797C18.5153 4.66797 18.1133 4.74802 17.7382 4.90353C17.3631 5.05905 17.0224 5.28699 16.7354 5.57431Z" fill="black"/>
<path d="M14.9487 4.62809C15.0595 4.62823 15.1694 4.60645 15.2718 4.564C15.3742 4.52155 15.4673 4.45926 15.5455 4.38073C15.9886 3.93692 16.5148 3.58483 17.0941 3.3446C17.6734 3.10438 18.2943 2.98073 18.9214 2.98073C19.5486 2.98073 20.1695 3.10438 20.7488 3.3446C21.3281 3.58483 21.8543 3.93692 22.2974 4.38073C22.4563 4.53497 22.6696 4.62052 22.8911 4.6189C23.1126 4.61729 23.3245 4.52864 23.4812 4.37209C23.6379 4.21555 23.7268 4.00366 23.7286 3.78217C23.7305 3.56068 23.6451 3.34735 23.491 3.18823C22.8913 2.58757 22.179 2.11105 21.3949 1.78593C20.6108 1.4608 19.7703 1.29346 18.9214 1.29346C18.0726 1.29346 17.2321 1.4608 16.448 1.78593C15.6639 2.11105 14.9516 2.58757 14.3518 3.18823C14.234 3.30627 14.1538 3.45658 14.1213 3.62018C14.0889 3.78378 14.1057 3.95333 14.1695 4.10741C14.2334 4.26149 14.3415 4.39318 14.4802 4.48586C14.6188 4.57853 14.7819 4.62802 14.9487 4.62809Z" fill="black"/>
</g>
<defs>
<linearGradient id="paint0_linear" x1="18.9214" y1="21.9599" x2="34.6714" y2="21.9599" gradientUnits="userSpaceOnUse">
<stop offset="0.004" stop-color="#DD888A"/>
<stop offset="1" stop-color="#ECBBBC"/>
</linearGradient>
<linearGradient id="paint1_linear" x1="17.7013" y1="26.1596" x2="32.3966" y2="11.4643" gradientUnits="userSpaceOnUse">
<stop offset="0.011" stop-color="#FDECBF"/>
<stop offset="1" stop-color="#FEF9EA"/>
</linearGradient>
<linearGradient id="paint2_linear" x1="1.23758" y1="31.4924" x2="20.0813" y2="12.6486" gradientUnits="userSpaceOnUse">
<stop stop-color="#D46669"/>
<stop offset="1" stop-color="#DD888A"/>
</linearGradient>
<linearGradient id="paint3_linear" x1="-5419.89" y1="6770.97" x2="-2022.52" y2="4573.33" gradientUnits="userSpaceOnUse">
<stop offset="0.011" stop-color="#FDECBF"/>
<stop offset="1" stop-color="#FEF9EA"/>
</linearGradient>
<linearGradient id="paint4_linear" x1="22.8413" y1="34.604" x2="29.403" y2="28.0423" gradientUnits="userSpaceOnUse">
<stop offset="0.011" stop-color="#FAD46A"/>
<stop offset="1" stop-color="#FCE6AA"/>
</linearGradient>
<linearGradient id="paint5_linear" x1="6.14835" y1="36.8954" x2="17.2929" y2="25.7509" gradientUnits="userSpaceOnUse">
<stop offset="0.011" stop-color="#F8C73F"/>
<stop offset="1" stop-color="#FADA7F"/>
</linearGradient>
<clipPath id="clip0">
<rect width="36" height="36" fill="white" transform="translate(0.921387 0.80127)"/>
</clipPath>
</defs>
</svg>
