<svg width="37" height="37" viewBox="0 0 37 37" fill="none" xmlns="http://www.w3.org/2000/svg">
  <g clip-path="url(#clip0)">
  <path d="M25.8326 12.5869L28.9492 21.3854L24.1043 20.3627L21.0504 24.2604L18.4718 17.1759L25.8326 12.5869Z" fill="#72D8FF"/>
  <path d="M18.4618 17.1485L15.2757 23.9812L12.5731 19.8321L7.65747 20.4288L11.3433 12.5869L18.4618 17.1485Z" fill="#72D8FF"/>
  <path d="M18.4495 17.0636C22.7989 17.0636 26.3248 13.5377 26.3248 9.18829C26.3248 4.83888 22.7989 1.31299 18.4495 1.31299C14.1001 1.31299 10.5742 4.83888 10.5742 9.18829C10.5742 13.5377 14.1001 17.0636 18.4495 17.0636Z" fill="#FF5D5D"/>
  <path d="M18.4488 5.56592L19.6263 7.95029L22.2581 8.33209L20.3543 10.1888L20.8046 12.8097L18.4503 11.5729L16.0968 12.811L16.5458 10.1898L14.6409 8.33413L17.2725 7.95092L18.4488 5.56592Z" fill="#FFB954"/>
  <path d="M7.93077 24.3765H2.09897V35.9082H7.93077V24.3765Z" fill="#2E9DE3"/>
  <path d="M34.6201 27.2129C34.1186 26.0292 32.7337 25.4994 31.5701 26.0463L21.3611 30.8454H20.7124L20.6664 30.8601C20.8224 30.1583 20.5826 29.3707 19.8803 28.9054L15.1682 25.7827H7.97244V34.9237L11.1879 35.9081H18.9474C20.7212 35.9081 22.4718 35.5053 24.0673 34.7299L26.0881 33.7479L30.9503 31.3851L33.5242 30.1342C34.6088 29.6073 35.0904 28.3233 34.6201 27.2129Z" fill="#FFEFD5"/>
  <path d="M15.7903 10.4355L15.4039 12.6922C15.3587 12.9561 15.4672 13.2226 15.6837 13.3799C15.8062 13.4688 15.9512 13.5141 16.097 13.5141C16.209 13.5141 16.3213 13.4873 16.4242 13.4332L18.4506 12.3672L20.4775 13.4321C20.7145 13.5567 21.0016 13.5359 21.218 13.3784C21.4345 13.2211 21.5428 12.9544 21.4975 12.6907L21.1099 10.4341L22.7491 8.83546C22.9407 8.64857 23.0095 8.36914 22.9268 8.11461C22.844 7.86008 22.6239 7.67467 22.3591 7.6362L20.0931 7.30756L19.0791 5.25458C18.9607 5.01467 18.7163 4.86279 18.4487 4.86279C18.4486 4.86279 18.4486 4.86279 18.4485 4.86279C18.1808 4.86286 17.9365 5.01488 17.8181 5.25493L16.8053 7.30848L14.5395 7.63831C14.2747 7.67685 14.0547 7.86247 13.972 8.117C13.8894 8.37153 13.9585 8.65096 14.1501 8.83771L15.7903 10.4355ZM17.3738 8.64681C17.6029 8.61348 17.8008 8.46955 17.9032 8.26206L18.4492 7.15477L18.9959 8.26178C19.0983 8.46927 19.2963 8.61306 19.5253 8.64625L20.7472 8.8235L19.8634 9.68547C19.6978 9.84705 19.6222 10.0798 19.6614 10.3079L19.8704 11.5246L18.7775 10.9505C18.5726 10.8428 18.3278 10.843 18.1231 10.9506L17.0304 11.5253L17.2388 10.3084C17.2779 10.0803 17.2021 9.84761 17.0364 9.6861L16.1522 8.82463L17.3738 8.64681Z" fill="black"/>
  <path d="M7.7422 21.127L12.2229 20.5831L14.6864 24.3652C14.8168 24.5653 15.0389 24.6845 15.2754 24.6845C15.2919 24.6845 15.3085 24.684 15.3251 24.6828C15.5799 24.6648 15.8049 24.51 15.9128 24.2785L18.3816 18.9842L20.3895 24.5009C20.4768 24.7409 20.6875 24.9147 20.9397 24.9549C20.9766 24.9607 21.0136 24.9636 21.0502 24.9636C21.2642 24.9636 21.4691 24.8657 21.6036 24.6941L24.3873 21.1412L28.8036 22.0734C29.0527 22.1261 29.3103 22.04 29.4779 21.8487C29.6454 21.6574 29.6966 21.3904 29.6116 21.1507L26.4951 12.3523C26.4842 12.3217 26.4709 12.2928 26.4564 12.2647C27.6296 9.19775 26.982 5.58818 24.5135 3.12091C23.1823 1.79017 21.4954 0.950216 19.6354 0.691958C17.8366 0.442278 15.9704 0.776895 14.38 1.63429C14.0382 1.81858 13.9105 2.24509 14.0948 2.58688C14.279 2.92874 14.7055 3.05629 15.0474 2.87214C17.8117 1.38158 21.2957 1.89304 23.5194 4.11562C26.3165 6.91125 26.3178 11.4614 23.5222 14.2586C20.7266 17.0557 16.1763 17.0569 13.3792 14.2613C11.1554 12.0387 10.6422 8.55495 12.1313 5.78976C12.3154 5.4479 12.1875 5.02146 11.8456 4.83731C11.5039 4.65323 11.0773 4.78113 10.8932 5.12299C10.0365 6.71388 9.70273 8.58047 9.95354 10.379C10.0607 11.1478 10.2687 11.8863 10.5683 12.5829L7.02115 20.1298C6.9123 20.3613 6.93776 20.6337 7.08766 20.841C7.23764 21.0483 7.48837 21.1579 7.7422 21.127ZM24.517 15.2526C24.9179 14.8515 25.2702 14.42 25.575 13.9657L27.8676 20.4385L24.2494 19.6747C23.9872 19.6192 23.716 19.7179 23.5507 19.929L21.2778 22.8297L19.4154 17.7127C21.3421 17.4982 23.1265 16.6439 24.517 15.2526ZM11.4115 14.0949C11.699 14.5054 12.0233 14.8941 12.3852 15.2559C13.7615 16.6315 15.5226 17.4816 17.4257 17.7064L15.1735 22.5363L13.1622 19.4485C13.0159 19.2238 12.7539 19.1021 12.4883 19.1343L8.83451 19.5778L11.4115 14.0949Z" fill="black"/>
  <path d="M12.3828 4.11907C12.5201 4.25639 12.7 4.32501 12.8799 4.32501C13.0599 4.32501 13.2398 4.25639 13.3771 4.11907C13.6517 3.8445 13.6517 3.39928 13.3771 3.12457L13.3721 3.1195C13.0974 2.84493 12.6523 2.84493 12.3776 3.1195C12.103 3.39407 12.103 3.83929 12.3776 4.11393L12.3828 4.11907Z" fill="black"/>
  <path d="M28.5777 31.835C28.392 31.835 28.2114 31.9102 28.0806 32.041C27.9491 32.1718 27.8746 32.3532 27.8746 32.5381C27.8746 32.7237 27.9491 32.9044 28.0806 33.0352C28.2114 33.1667 28.3921 33.2412 28.5777 33.2412C28.7626 33.2412 28.9433 33.1667 29.0747 33.0352C29.2055 32.9044 29.2808 32.7237 29.2808 32.5381C29.2808 32.3532 29.2056 32.1725 29.0747 32.041C28.9433 31.9102 28.7626 31.835 28.5777 31.835Z" fill="black"/>
  <path d="M35.2674 26.9387C34.9496 26.1886 34.3555 25.615 33.5945 25.3239C32.8335 25.0329 32.0083 25.0634 31.2709 25.4101L21.3857 30.0569C21.2797 29.3574 20.8868 28.729 20.2685 28.3192L15.5565 25.1966C15.4412 25.1203 15.3061 25.0796 15.1681 25.0796H8.63397V24.3765C8.63397 23.9881 8.31911 23.6733 7.93084 23.6733H2.09897C1.7107 23.6733 1.39584 23.9881 1.39584 24.3765C1.39584 24.7648 1.7107 25.0796 2.09897 25.0796H7.22764V35.205H2.09897C1.7107 35.205 1.39584 35.5198 1.39584 35.9081C1.39584 36.2964 1.7107 36.6112 2.09897 36.6112H7.93077C8.31904 36.6112 8.6339 36.2964 8.6339 35.9081V35.8616L10.9818 36.5804C11.0486 36.6009 11.118 36.6112 11.1877 36.6112H18.9472C20.8165 36.6112 22.6932 36.1794 24.3744 35.3623L26.3952 34.3803C26.7445 34.2106 26.89 33.7899 26.7203 33.4406C26.5506 33.0912 26.1299 32.9457 25.7806 33.1155L23.7598 34.0975C22.269 34.8219 20.6048 35.2049 18.9474 35.2049H11.293L8.63404 34.391V26.4861H14.9563L19.4918 29.4917C19.8801 29.7491 20.0678 30.1773 19.9939 30.6373C19.9199 31.0972 19.6075 31.4451 19.158 31.5677C18.8443 31.6534 18.507 31.6021 18.2328 31.4269L15.0608 29.401C14.7334 29.192 14.2986 29.2879 14.0897 29.6151C13.8806 29.9424 13.9765 30.3772 14.3038 30.5862L17.4758 32.6121C17.8909 32.8773 18.3711 33.0144 18.8556 33.0144C19.081 33.0144 19.3073 32.9847 19.5283 32.9244C20.2723 32.7213 20.8599 32.2179 21.1715 31.5488H21.361C21.4645 31.5488 21.5666 31.526 21.6602 31.482L31.8691 26.6829C32.2573 26.5005 32.6914 26.4844 33.0921 26.6376C33.4926 26.7908 33.8053 27.0926 33.9725 27.4874C34.297 28.2534 33.9651 29.1384 33.2167 29.502L30.6429 30.7529C30.2936 30.9226 30.1481 31.3433 30.3178 31.6926C30.4394 31.9429 30.69 32.0886 30.9507 32.0886C31.0539 32.0886 31.1586 32.0659 31.2576 32.0178L33.8314 30.7669C35.2533 30.0759 35.8841 28.3944 35.2674 26.9387Z" fill="black"/>
  <path d="M6.08531 29.3718L6.09142 29.3662C6.37774 29.1039 6.39735 28.6592 6.13509 28.3728C5.87282 28.0864 5.42816 28.0668 5.14164 28.3291L5.13552 28.3347C4.84921 28.597 4.82959 29.0417 5.09186 29.3281C5.23058 29.4796 5.42029 29.5564 5.61062 29.5564C5.78022 29.5564 5.9503 29.4954 6.08531 29.3718Z" fill="black"/>
  </g>
  <defs>
  <clipPath id="clip0">
  <rect width="36" height="36" fill="white" transform="translate(0.449707 0.611328)"/>
  </clipPath>
  </defs>
  </svg>
