<svg width="37" height="37" viewBox="0 0 37 37" fill="none" xmlns="http://www.w3.org/2000/svg">
<g clip-path="url(#clip0)">
<path d="M16.0825 6.07584H22.2408L19.4082 9.55216L16.0825 6.07584Z" fill="#FCC69D"/>
<path d="M24.4087 4.50081L23.9424 3.99983C23.1905 3.19187 22.1364 2.73294 21.0326 2.73294H15.5103V3.65516C15.5103 5.03483 16.6322 6.15146 18.0118 6.14492L22.6359 6.13578L24.4087 4.50081Z" fill="#FCC69D"/>
<path d="M18.1538 28.9537C19.3145 29.8648 20.7764 30.3042 22.2471 30.1838L22.4702 30.1655L26.3277 34.0231L35.7463 25.9009L30.4044 20.5824L18.1538 28.9537Z" fill="#FCC69D"/>
<path d="M8.55688 21.0283L1.15283 28.4323L13.0988 34.0271L19.401 27.7015C21.9917 27.6075 24.4507 26.5363 26.2839 24.7033L33.1061 17.881C33.8664 17.1207 33.8664 15.8881 33.1061 15.1277C32.3458 14.3674 31.1132 14.3674 30.3528 15.1277L29.4886 15.9919L31.2976 14.1829C32.0579 13.4226 32.0579 12.19 31.2976 11.4296C30.5373 10.6693 29.3047 10.6693 28.5443 11.4296L26.7353 13.2386L29.2326 10.7413C29.9929 9.98105 29.9929 8.7484 29.2326 7.98804C28.4723 7.22775 27.2397 7.22775 26.4793 7.98804L23.982 10.4853L27.1677 7.29968C27.928 6.53939 27.928 5.30674 27.1677 4.54638C26.4074 3.78609 25.1747 3.78609 24.4144 4.54638L19.4084 9.55235" fill="#FCC69D"/>
<path d="M11.3102 18.2747L9.40994 16.3745C8.64965 15.6142 7.417 15.6142 6.65664 16.3745C5.89635 17.1348 5.89635 18.3674 6.65664 19.1278L8.55691 21.028C9.31719 21.7883 10.5498 21.7883 11.3102 21.028C12.0705 20.2678 12.0705 19.035 11.3102 18.2747Z" fill="#FCC69D"/>
<path d="M14.0636 15.5217L11.2185 12.6767C10.4582 11.9164 9.2256 11.9164 8.46524 12.6767C7.70495 13.437 7.70495 14.6696 8.46524 15.43L11.3103 18.275C12.0706 19.0353 13.3032 19.0353 14.0636 18.275C14.8239 17.5147 14.8239 16.282 14.0636 15.5217Z" fill="#FCC69D"/>
<path d="M16.8168 12.7682L13.2835 9.23483C12.5232 8.47454 11.2905 8.47454 10.5302 9.23483C9.76989 9.99512 9.76989 11.2278 10.5302 11.9881L14.0635 15.5215C14.8238 16.2818 16.0565 16.2818 16.8168 15.5215C17.5771 14.7613 17.5771 13.5285 16.8168 12.7682Z" fill="#FCC69D"/>
<path d="M19.5701 10.0152L15.3484 5.79348C14.5881 5.03319 13.3555 5.03319 12.5951 5.79348C11.8348 6.55377 11.8348 7.78642 12.5951 8.54678L16.8168 12.7685C17.5771 13.5288 18.8098 13.5288 19.5701 12.7685C20.3304 12.0081 20.3304 10.7755 19.5701 10.0152Z" fill="#FCC69D"/>
<path d="M36.242 25.4015L34.5257 23.6992C34.2499 23.4256 33.8046 23.4275 33.5311 23.7033C33.2575 23.9791 33.2594 24.4243 33.5352 24.6979L35.2514 26.4001C35.3885 26.5362 35.5676 26.6041 35.7466 26.6041C35.9275 26.6041 36.1084 26.5347 36.2459 26.396C36.5196 26.1203 36.5177 25.675 36.242 25.4015Z" fill="black"/>
<path d="M31.7821 21.9574L31.7809 21.9586C31.5062 22.2332 31.5069 22.6779 31.7815 22.9526C31.9186 23.0898 32.0985 23.1583 32.2784 23.1583C32.4587 23.1583 32.6391 23.0895 32.7766 22.952C33.0512 22.6774 33.0512 22.2321 32.7766 21.9574C32.502 21.6827 32.0568 21.6827 31.7821 21.9574Z" fill="black"/>
<path d="M22.9678 29.6681C22.8218 29.5221 22.6189 29.4475 22.413 29.4644L22.1901 29.4827C21.1609 29.567 20.1436 29.3416 19.2555 28.8439L19.7074 28.3903C22.3797 28.2255 24.8823 27.0992 26.7812 25.2003L33.6035 18.3781C34.6367 17.3448 34.6367 15.6634 33.6034 14.6301C33.2391 14.2658 32.7941 14.0305 32.3253 13.9231C32.486 13.5776 32.5711 13.1984 32.5711 12.806C32.5711 12.0981 32.2954 11.4326 31.7949 10.9321C31.4024 10.5395 30.9081 10.2859 30.3717 10.1946C30.6737 9.27449 30.4602 8.22072 29.7299 7.49045C29.3284 7.08897 28.8289 6.84428 28.3077 6.75484C28.395 6.48984 28.4411 6.20992 28.4411 5.92284C28.4411 5.21493 28.1654 4.54942 27.6649 4.04894C27.1643 3.54845 26.4988 3.27276 25.791 3.27276C25.3415 3.27276 24.9093 3.38427 24.5253 3.59366L24.4575 3.52075C23.5756 2.57308 22.3273 2.02963 21.033 2.02963H15.5106C15.1223 2.02963 14.8073 2.34456 14.8073 2.7329V3.65512C14.8073 4.02419 14.8698 4.38348 14.9891 4.72134C14.671 4.58922 14.3268 4.51982 13.972 4.51982C13.2641 4.51982 12.5986 4.79552 12.0981 5.296C11.3674 6.02669 11.1541 7.08123 11.4568 8.00163C10.9352 8.09085 10.435 8.33568 10.0331 8.73752C9.53264 9.23807 9.25695 9.90358 9.25695 10.6114C9.25695 10.898 9.30286 11.1774 9.38984 11.4419C8.85406 11.5335 8.36032 11.7869 7.96812 12.1792C7.16114 12.9861 6.98445 14.1885 7.43803 15.1686C6.95773 15.2783 6.51659 15.5202 6.15954 15.8772C5.1263 16.9104 5.1263 18.5917 6.15954 19.6251L7.56256 21.028L0.655687 27.9349C0.381047 28.2096 0.381047 28.6549 0.655687 28.9296C0.793008 29.0668 0.973008 29.1356 1.15294 29.1356C1.33287 29.1356 1.51287 29.0669 1.65019 28.9296L8.62392 21.9558C9.01873 22.1811 9.46676 22.3016 9.9337 22.3016C10.6415 22.3016 11.307 22.0259 11.8076 21.5254C12.3513 20.9817 12.6086 20.2584 12.58 19.5445C12.6156 19.546 12.6513 19.5471 12.6869 19.5471C13.3654 19.547 14.0443 19.2887 14.5608 18.7722C15.0613 18.2716 15.337 17.6061 15.337 16.8983C15.337 16.8625 15.3358 16.8269 15.3344 16.7913C15.3696 16.7927 15.4049 16.7939 15.4402 16.7939C16.1187 16.7939 16.7975 16.5355 17.3141 16.0189C17.8145 15.5184 18.0902 14.8529 18.0902 14.145C18.0902 14.1093 18.089 14.0737 18.0876 14.0381C18.1229 14.0395 18.1581 14.0406 18.1934 14.0406C18.872 14.0406 19.5507 13.7823 20.0673 13.2657C21.0382 12.2948 21.0966 10.752 20.2431 9.71198L24.9114 5.04365C25.1463 4.80866 25.4585 4.67936 25.7907 4.67936C26.1229 4.67936 26.4352 4.80866 26.6701 5.04365C26.905 5.27856 27.0343 5.59082 27.0343 5.92298C27.0343 6.25513 26.905 6.56746 26.67 6.8023L25.9818 7.49059L23.4844 9.98795C23.2098 10.2626 23.2098 10.7079 23.4844 10.9826C23.6217 11.1198 23.8017 11.1886 23.9816 11.1886C24.1616 11.1886 24.3416 11.1199 24.4789 10.9826L26.9763 8.48524C27.4611 8.00036 28.25 8.00029 28.735 8.48516C29.2199 8.97011 29.2199 9.75909 28.735 10.244L28.0466 10.9323L26.2376 12.7413C25.963 13.016 25.963 13.4613 26.2376 13.736C26.3749 13.8732 26.5549 13.942 26.7349 13.942C26.9148 13.942 27.0948 13.8733 27.2321 13.736L29.0411 11.927C29.276 11.692 29.5884 11.5627 29.9205 11.5627C30.2527 11.5627 30.5649 11.692 30.7999 11.927C31.0348 12.1619 31.1641 12.4741 31.1641 12.8063C31.1641 13.1384 31.0348 13.4508 30.7998 13.6856L29.855 14.6304L28.9908 15.4946C28.7161 15.7693 28.7161 16.2145 28.9908 16.4893C29.1281 16.6265 29.3081 16.6953 29.488 16.6953C29.668 16.6953 29.848 16.6266 29.9853 16.4893L30.8501 15.6244C31.3351 15.1403 32.1235 15.1404 32.6082 15.625C33.0932 16.1099 33.0932 16.8989 32.6082 17.3838L25.7859 24.2061C24.0728 25.9192 21.7961 26.911 19.375 26.9989C19.197 27.0053 19.028 27.0791 18.9023 27.2054L12.6 33.531C12.3259 33.8061 12.3266 34.2514 12.6019 34.5255C12.739 34.6622 12.9186 34.7306 13.0982 34.7306C13.2785 34.7306 13.459 34.6617 13.5964 34.5237L18.2318 29.8711C19.4093 30.6265 20.794 30.9857 22.202 30.8926L25.83 34.5206C25.9673 34.6579 26.1473 34.7266 26.3273 34.7266C26.5072 34.7266 26.6872 34.6579 26.8245 34.5206C27.0992 34.246 27.0992 33.8007 26.8245 33.526L22.9678 29.6681ZM16.2137 3.43609H21.0328C21.9381 3.43609 22.811 3.81613 23.4278 4.4789L23.4564 4.50963L19.2579 8.70813L17.3263 6.7765C17.5453 6.82326 17.7705 6.84808 17.9997 6.84801C18.0049 6.84801 18.0101 6.84801 18.0153 6.84801L19.9452 6.83894C20.3336 6.83711 20.647 6.52077 20.6452 6.13237C20.6434 5.74509 20.3288 5.43241 19.942 5.43241C19.9409 5.43241 19.9397 5.43241 19.9386 5.43241L18.0087 5.44148C18.0057 5.44148 18.0029 5.44148 18 5.44148C17.5244 5.44148 17.0772 5.25691 16.74 4.9213C16.4006 4.58352 16.2138 4.13395 16.2138 3.65512L16.2137 3.43609ZM10.8131 20.5309C10.5782 20.7659 10.2659 20.8952 9.93377 20.8952C9.60155 20.8952 9.28929 20.7659 9.05445 20.5309L7.15418 18.6307C6.6693 18.1458 6.6693 17.3568 7.15418 16.8719C7.38909 16.6369 7.70142 16.5076 8.03358 16.5076C8.36573 16.5076 8.67806 16.6369 8.91291 16.8719L10.8132 18.7721C11.298 19.257 11.298 20.0459 10.8131 20.5309ZM13.9307 16.8982C13.9307 17.2304 13.8014 17.5427 13.5665 17.7775C13.0815 18.2624 12.2925 18.2624 11.8077 17.7775L9.90741 15.8773L8.96255 14.9324C8.47767 14.4475 8.47767 13.6585 8.96255 13.1737C9.19746 12.9387 9.50979 12.8094 9.84188 12.8094C10.1741 12.8094 10.4864 12.9387 10.7212 13.1737L13.5663 16.0187C13.5663 16.0187 13.5663 16.0187 13.5663 16.0187C13.8013 16.2537 13.9307 16.566 13.9307 16.8982ZM16.6839 14.1449C16.6839 14.4771 16.5546 14.7894 16.3197 15.0242C15.8348 15.509 15.0458 15.5091 14.5609 15.0242L11.0275 11.4908C10.7926 11.2559 10.6633 10.9436 10.6633 10.6115C10.6633 10.2793 10.7926 9.967 11.0276 9.73216C11.27 9.48972 11.5885 9.3685 11.9069 9.3685C12.2251 9.3685 12.5433 9.48958 12.7856 9.7316L14.3961 11.342L16.3196 13.2655H16.3196C16.5546 13.5004 16.6839 13.8127 16.6839 14.1449ZM19.073 12.2709C18.5881 12.7558 17.7991 12.7558 17.3143 12.2709L13.7809 8.73752C13.7805 8.73716 13.7801 8.73681 13.7797 8.73639L13.0925 8.04923C12.6076 7.56428 12.6076 6.7753 13.0925 6.29043C13.3349 6.04792 13.6534 5.9267 13.9719 5.9267C14.2903 5.9267 14.6089 6.04792 14.8512 6.29043L19.0729 10.5121C19.3078 10.747 19.4371 11.0593 19.4371 11.3914C19.4372 11.7237 19.308 12.0361 19.073 12.2709Z" fill="black"/>
</g>
<defs>
<clipPath id="clip0">
<rect width="36" height="36" fill="white" transform="translate(0.449707 0.379883)"/>
</clipPath>
</defs>
</svg>
